<svg width="934" height="934" viewBox="0 0 934 934" fill="none" xmlns="http://www.w3.org/2000/svg">
<path d="M715.988 279.445C716.136 263.072 710.155 247.236 699.232 235.055C688.309 222.872 673.229 215.223 656.958 213.61C640.687 211.997 624.404 216.544 611.308 226.35C598.213 236.155 589.257 250.514 586.197 266.595C583.138 282.683 586.197 299.334 594.779 313.271C603.354 327.209 616.83 337.428 632.551 341.923C626.175 440.769 504.493 448.892 466.452 448.892C398.323 449.423 335.088 484.436 298.415 541.935V293.183C319.252 287.943 336.201 272.801 343.762 252.659C351.328 232.518 348.541 209.945 336.312 192.251C324.083 174.557 303.964 164 282.481 164C260.992 164 240.872 174.557 228.643 192.251C216.413 209.945 213.626 232.516 221.193 252.659C228.753 272.801 245.703 287.943 266.546 293.183V602.685V602.678C266.604 603.261 266.604 603.844 266.546 604.42V639.822C245.703 645.055 228.754 660.198 221.193 680.341C213.626 700.482 216.414 723.061 228.643 740.749C240.872 758.443 260.99 769 282.481 769C303.964 769 324.083 758.443 336.312 740.749C348.541 723.061 351.328 700.484 343.762 680.341C336.202 660.199 319.252 645.057 298.415 639.822V614.479C300.155 609.065 342.643 483.717 465.69 483.717C560.714 483.717 661.738 446.191 666.755 342.125H666.748C680.697 338.557 693.081 330.481 701.986 319.147C710.885 307.819 715.813 293.869 716 279.452L715.988 279.445ZM249.16 229.925C249.16 221.052 252.678 212.542 258.945 206.265C265.211 199.989 273.709 196.459 282.574 196.459C291.434 196.459 299.931 199.989 306.199 206.265C312.465 212.541 315.983 221.051 315.983 229.925C315.983 238.805 312.465 247.314 306.199 253.59C299.932 259.866 291.435 263.389 282.574 263.389C273.695 263.441 265.165 259.931 258.885 253.648C252.606 247.359 249.107 238.817 249.159 229.924L249.16 229.925ZM315.796 702.294C315.847 711.186 312.355 719.741 306.095 726.057C299.842 732.371 291.325 735.933 282.446 735.946C273.56 735.966 265.036 732.436 258.752 726.147C252.472 719.858 248.948 711.316 248.967 702.423C248.98 693.524 252.537 685 258.842 678.731C265.147 672.462 273.69 668.971 282.576 669.023C291.371 669.068 299.79 672.591 306.005 678.822C312.226 685.052 315.744 693.485 315.796 702.293L315.796 702.294ZM650.511 312.71C641.632 312.71 633.128 309.174 626.855 302.885C620.589 296.596 617.077 288.066 617.097 279.18C617.11 270.294 620.66 261.784 626.952 255.515C633.245 249.252 641.762 245.748 650.641 245.781C659.514 245.82 668.005 249.382 674.253 255.697C680.493 262.011 683.972 270.554 683.921 279.439C683.921 288.299 680.396 296.791 674.123 303.033C667.85 309.275 659.353 312.761 650.512 312.709L650.511 312.71Z" fill="white"/>
</svg>
