<svg width="934" height="934" viewBox="0 0 934 934" fill="none" xmlns="http://www.w3.org/2000/svg">
<path fill-rule="evenodd" clip-rule="evenodd" d="M199 257.26V676.74C199 708.911 225.089 735 257.26 735H676.74C708.911 735 735 708.911 735 676.74V257.26C735 241.81 728.859 226.988 717.943 216.057C707.012 205.14 692.19 199 676.74 199H257.26C241.81 199 226.988 205.141 216.057 216.057C205.14 226.988 199 241.81 199 257.26ZM222.303 315.52H711.697V676.742C711.697 696.05 696.048 711.699 676.74 711.699H257.26C237.952 711.699 222.303 696.05 222.303 676.742V315.52ZM711.697 292.217H222.303V257.26C222.303 247.986 225.986 239.094 232.544 232.544C239.095 225.986 247.986 222.303 257.26 222.303H676.74C686.014 222.303 694.906 225.986 701.456 232.544C708.014 239.095 711.697 247.986 711.697 257.26V292.217Z" fill="white"/>
<path fill-rule="evenodd" clip-rule="evenodd" d="M257.26 268.914H280.563C286.996 268.914 292.216 263.694 292.216 257.26C292.216 250.827 286.996 245.607 280.563 245.607H257.26C250.826 245.607 245.606 250.827 245.606 257.26C245.606 263.694 250.826 268.914 257.26 268.914Z" fill="white"/>
<path fill-rule="evenodd" clip-rule="evenodd" d="M327.174 268.914H350.477C356.91 268.914 362.13 263.694 362.13 257.26C362.13 250.827 356.91 245.607 350.477 245.607H327.174C320.74 245.607 315.52 250.827 315.52 257.26C315.52 263.694 320.74 268.914 327.174 268.914Z" fill="white"/>
<path fill-rule="evenodd" clip-rule="evenodd" d="M397.087 268.914H420.39C426.823 268.914 432.044 263.694 432.044 257.26C432.044 250.827 426.823 245.607 420.39 245.607H397.087C390.653 245.607 385.433 250.827 385.433 257.26C385.433 263.694 390.653 268.914 397.087 268.914Z" fill="white"/>
<path fill-rule="evenodd" clip-rule="evenodd" d="M467.001 268.914H676.741C683.174 268.914 688.395 263.694 688.395 257.26C688.395 250.827 683.174 245.607 676.741 245.607H467.001C460.567 245.607 455.347 250.827 455.347 257.26C455.347 263.694 460.567 268.914 467.001 268.914Z" fill="white"/>
<path fill-rule="evenodd" clip-rule="evenodd" d="M388.847 365.545L342.24 412.155C337.684 416.701 337.684 424.086 342.24 428.631L388.847 475.241C393.392 479.783 400.781 479.783 405.326 475.241C409.868 470.696 409.868 463.307 405.326 458.762L366.952 420.391L405.326 382.021C409.868 377.476 409.868 370.091 405.326 365.545C400.781 361 393.392 361 388.847 365.545Z" fill="white"/>
<path fill-rule="evenodd" clip-rule="evenodd" d="M454.117 472.204L500.723 378.987C503.602 373.24 501.273 366.226 495.515 363.362C489.772 360.482 482.758 362.811 479.889 368.57L433.283 461.786C430.404 467.529 432.733 474.544 438.491 477.412C444.234 480.291 451.248 477.958 454.117 472.204V472.204Z" fill="white"/>
<path fill-rule="evenodd" clip-rule="evenodd" d="M528.673 382.015L567.047 420.385L528.673 458.756C524.131 463.301 524.131 470.69 528.673 475.235C533.218 479.777 540.607 479.777 545.152 475.235L591.758 428.625C596.315 424.08 596.315 416.695 591.758 412.15L545.152 365.539C540.607 360.994 533.218 360.994 528.673 365.539C524.131 370.084 524.131 377.469 528.673 382.015V382.015Z" fill="white"/>
<path fill-rule="evenodd" clip-rule="evenodd" d="M280.56 525.258H327.17C333.604 525.258 338.824 520.038 338.824 513.608C338.824 507.175 333.604 501.955 327.17 501.955H280.56C274.131 501.955 268.911 507.175 268.911 513.608C268.911 520.038 274.131 525.258 280.56 525.258Z" fill="white"/>
<path fill-rule="evenodd" clip-rule="evenodd" d="M373.785 525.258H653.439C659.868 525.258 665.089 520.038 665.089 513.608C665.089 507.175 659.868 501.955 653.439 501.955H373.785C367.352 501.955 362.132 507.175 362.132 513.608C362.132 520.038 367.352 525.258 373.785 525.258V525.258Z" fill="white"/>
<path fill-rule="evenodd" clip-rule="evenodd" d="M280.56 571.871H513.612C520.041 571.871 525.261 566.651 525.261 560.217C525.261 553.788 520.041 548.568 513.612 548.568H280.56C274.131 548.568 268.911 553.788 268.911 560.217C268.911 566.651 274.131 571.871 280.56 571.871Z" fill="white"/>
<path fill-rule="evenodd" clip-rule="evenodd" d="M560.215 571.871H653.436C659.865 571.871 665.085 566.651 665.085 560.217C665.085 553.788 659.865 548.568 653.436 548.568H560.215C553.785 548.568 548.565 553.788 548.565 560.217C548.565 566.651 553.786 571.871 560.215 571.871V571.871Z" fill="white"/>
<path fill-rule="evenodd" clip-rule="evenodd" d="M280.56 618.482H327.17C333.604 618.482 338.824 613.262 338.824 606.829C338.824 600.395 333.604 595.175 327.17 595.175H280.56C274.131 595.175 268.911 600.395 268.911 606.829C268.911 613.262 274.131 618.482 280.56 618.482Z" fill="white"/>
<path fill-rule="evenodd" clip-rule="evenodd" d="M373.785 618.482H420.392C426.825 618.482 432.045 613.262 432.045 606.829C432.045 600.395 426.825 595.175 420.392 595.175H373.785C367.352 595.175 362.132 600.395 362.132 606.829C362.132 613.262 367.352 618.482 373.785 618.482Z" fill="white"/>
<path fill-rule="evenodd" clip-rule="evenodd" d="M467.001 618.482H653.44C659.869 618.482 665.089 613.262 665.089 606.829C665.089 600.395 659.869 595.175 653.44 595.175H467.001C460.567 595.175 455.347 600.395 455.347 606.829C455.347 613.262 460.567 618.482 467.001 618.482Z" fill="white"/>
<path fill-rule="evenodd" clip-rule="evenodd" d="M280.56 665.084H653.438C659.868 665.084 665.088 659.864 665.088 653.435C665.088 647.001 659.868 641.781 653.438 641.781H280.56C274.131 641.781 268.911 647.001 268.911 653.435C268.911 659.864 274.131 665.084 280.56 665.084V665.084Z" fill="white"/>
</svg>
