<svg width="934" height="934" viewBox="0 0 934 934" fill="none" xmlns="http://www.w3.org/2000/svg">
<path d="M468.92 273.39C487.695 273.39 502.944 288.644 502.944 307.413C502.944 326.188 487.69 341.437 468.92 341.437C450.146 341.437 434.896 326.183 434.896 307.413C434.896 288.639 450.147 273.39 468.92 273.39V273.39ZM468.92 253.833C439.393 253.833 415.34 277.886 415.34 307.413C415.34 336.941 439.393 360.994 468.92 360.994C498.448 360.994 522.501 336.941 522.501 307.413C522.501 277.886 498.448 253.833 468.92 253.833Z" fill="white"/>
<path d="M594.601 377.616C602.358 377.616 609.396 384.654 610.701 394.171C612.133 404.406 606.463 413.728 598.056 414.901L499.302 428.851V491.166L552.56 619.707C556.534 629.224 551.91 640.304 542.393 644.215C540.047 645.193 537.633 645.648 535.286 645.648C527.92 645.648 520.882 641.278 517.881 634.044L468.924 515.932L419.972 634.044C416.975 641.278 409.932 645.648 402.566 645.648C400.156 645.648 397.742 645.193 395.459 644.215C385.943 640.241 381.377 629.224 385.292 619.707L438.55 491.166L438.546 428.846L339.791 414.959C331.384 413.786 325.646 404.465 327.147 394.23C328.452 384.713 335.554 377.674 343.247 377.674C343.834 377.674 344.42 377.738 345.007 377.806L440.374 391.233H497.475L592.842 377.806C593.428 377.674 594.015 377.61 594.601 377.61L594.601 377.616ZM594.601 358.054C593.101 358.054 591.605 358.186 590.104 358.381L496.042 371.612H441.679L347.617 358.381C346.117 358.186 344.621 358.054 343.12 358.054C325.588 358.054 310.332 372.394 307.659 391.428C304.726 412.354 317.894 431.582 336.991 434.255L418.926 445.791V487.25L367.237 612.148C363.327 621.601 363.327 632.027 367.237 641.479C371.148 650.932 378.514 658.298 387.967 662.209C392.659 664.164 397.547 665.142 402.567 665.142C418.145 665.142 432.095 655.885 438.029 641.48L468.925 566.974L499.757 641.48C505.691 655.821 519.636 665.142 535.219 665.142C540.239 665.142 545.19 664.164 549.819 662.209C569.307 654.125 578.633 631.635 570.549 612.148L518.791 487.191V445.797L600.727 434.261C610.571 432.893 619.306 427.027 624.716 418.097C629.476 410.34 631.363 400.823 630.063 391.439C627.453 372.464 612.203 358.06 594.602 358.06L594.601 358.054Z" fill="white"/>
<circle cx="467.5" cy="467.5" r="308.519" stroke="white" stroke-width="23.9626"/>
</svg>
