<svg width="934" height="934" viewBox="0 0 934 934" fill="none" xmlns="http://www.w3.org/2000/svg">
<path d="M490.298 386.199H530.695C534.303 386.199 537.636 384.273 539.441 381.149C541.244 378.024 541.244 374.174 539.441 371.05C537.636 367.925 534.303 366 530.695 366H490.298C482.263 366 474.555 369.192 468.875 374.875C463.192 380.556 460 388.263 460 396.298V446.794C460 454.83 463.192 462.537 468.875 468.217C474.556 473.9 482.263 477.092 490.298 477.092H510.496C513.175 477.092 515.744 478.157 517.638 480.05C519.531 481.944 520.596 484.513 520.596 487.192V537.688C520.596 540.367 519.531 542.936 517.638 544.829C515.744 546.723 513.175 547.788 510.496 547.788H470.099C466.491 547.788 463.158 549.713 461.353 552.837C459.55 555.962 459.55 559.812 461.353 562.936C463.158 566.061 466.491 567.986 470.099 567.986H510.496C518.532 567.986 526.239 564.794 531.919 559.111C537.602 553.43 540.794 545.723 540.794 537.688V487.192C540.794 479.156 537.603 471.449 531.919 465.769C526.238 460.086 518.532 456.894 510.496 456.894H490.298C487.619 456.894 485.05 455.829 483.157 453.936C481.263 452.042 480.198 449.473 480.198 446.794V396.298C480.198 393.62 481.263 391.051 483.157 389.157C485.05 387.263 487.619 386.199 490.298 386.199V386.199Z" fill="white"/>
<path d="M618.701 184.226H376.318C375.055 183.925 373.743 183.925 372.48 184.226C371.22 184.657 370.103 185.425 369.248 186.447L268.255 287.44C266.795 288.381 265.72 289.816 265.226 291.48C264.925 292.743 264.925 294.055 265.226 295.318V699.29C265.226 712.682 270.547 725.527 280.015 734.997C289.485 744.465 302.33 749.786 315.722 749.786H618.701C632.093 749.786 644.938 744.465 654.408 734.997C663.876 725.527 669.197 712.682 669.197 699.29V234.722C669.197 221.33 663.876 208.485 654.408 199.015C644.938 189.547 632.093 184.226 618.701 184.226ZM366.219 218.765V254.921C366.219 262.956 363.027 270.663 357.344 276.344C351.663 282.027 343.956 285.219 335.921 285.219H299.765L366.219 218.765ZM648.999 699.287C648.999 707.322 645.807 715.029 640.124 720.71C634.443 726.393 626.736 729.585 618.701 729.585H315.722C307.687 729.585 299.98 726.393 294.299 720.71C288.616 715.029 285.424 707.322 285.424 699.287V305.414H335.921C349.313 305.414 362.158 300.093 371.628 290.625C381.096 281.155 386.417 268.31 386.417 254.918V204.422H618.701C626.736 204.422 634.443 207.613 640.124 213.297C645.807 218.977 648.999 226.684 648.999 234.719V699.287Z" fill="white"/>
<path d="M395.096 567.721C391.157 567.721 387.719 567.47 384.783 566.969C381.775 566.539 379.197 565.93 377.049 565.143V543.551C379.34 544.124 381.811 544.625 384.461 545.055C387.111 545.484 389.939 545.699 392.947 545.699C396.886 545.699 400.467 544.947 403.689 543.443C406.912 541.939 409.454 539.218 411.316 535.279C413.25 531.34 414.217 525.79 414.217 518.629V366.949H439.998V517.77C439.998 529.443 438.136 538.932 434.412 546.236C430.688 553.613 425.46 559.02 418.729 562.457C411.997 565.966 404.119 567.721 395.096 567.721Z" fill="white"/>
</svg>
