<svg width="934" height="934" viewBox="0 0 934 934" fill="none" xmlns="http://www.w3.org/2000/svg">
<path d="M253.713 581.565C293.733 581.565 326.293 549.005 326.293 508.985C326.293 468.971 293.733 436.416 253.713 436.416C213.694 436.416 181.133 468.976 181.133 508.985C181.133 549.01 213.694 581.565 253.713 581.565V581.565ZM253.713 458.313C281.66 458.313 304.391 481.045 304.391 508.985C304.391 536.932 281.659 559.663 253.713 559.663C225.768 559.663 203.035 536.931 203.035 508.985C203.035 481.044 225.768 458.313 253.713 458.313Z" fill="white"/>
<path d="M253.716 601.47C189.911 601.47 138 653.385 138 717.186C138 736.817 153.974 752.79 173.604 752.79H333.831C353.462 752.79 369.426 736.816 369.426 717.186C369.426 653.386 317.516 601.47 253.71 601.47H253.716ZM333.837 730.889H173.611C166.054 730.889 159.907 724.742 159.907 717.185C159.907 665.458 201.994 623.371 253.721 623.371C305.449 623.371 347.536 665.458 347.536 717.185C347.536 724.742 341.389 730.889 333.842 730.889H333.837Z" fill="white"/>
<path d="M466.505 446.159C506.525 446.159 539.085 413.599 539.085 373.59C539.085 333.57 506.525 301.01 466.505 301.01C426.486 301.01 393.926 333.57 393.926 373.59C393.926 413.604 426.486 446.159 466.505 446.159ZM466.505 322.907C494.452 322.907 517.183 345.639 517.183 373.585C517.183 401.521 494.451 424.257 466.505 424.257C438.56 424.257 415.828 401.525 415.828 373.585C415.828 345.638 438.56 322.907 466.505 322.907Z" fill="white"/>
<path d="M582.224 581.799C582.224 517.994 530.315 466.078 466.508 466.078C402.702 466.078 350.792 517.988 350.792 581.799C350.792 601.43 366.767 617.403 386.387 617.403H546.614C566.254 617.398 582.218 601.429 582.218 581.799H582.224ZM546.629 595.503H386.39C378.833 595.503 372.697 589.356 372.697 581.799C372.697 530.072 414.784 487.975 466.511 487.975C518.238 487.975 560.325 530.067 560.325 581.799C560.325 589.356 554.179 595.503 546.632 595.503H546.629Z" fill="white"/>
<path d="M679.291 581.565C719.311 581.565 751.871 549.005 751.871 508.985C751.871 468.971 719.311 436.416 679.291 436.416C639.272 436.416 606.712 468.976 606.712 508.985C606.712 549.01 639.272 581.565 679.291 581.565ZM679.291 458.313C707.238 458.313 729.969 481.045 729.969 508.985C729.969 536.932 707.237 559.663 679.291 559.663C651.346 559.663 628.614 536.931 628.614 508.985C628.614 481.044 651.346 458.313 679.291 458.313Z" fill="white"/>
<path d="M679.29 601.47C615.485 601.47 563.574 653.375 563.574 717.186C563.574 736.817 579.549 752.79 599.169 752.79H759.396C779.027 752.79 795 736.816 795 717.186C795 653.386 743.09 601.47 679.284 601.47H679.29ZM759.401 730.889H599.174C591.618 730.889 585.481 724.742 585.481 717.185C585.481 665.458 627.568 623.371 679.296 623.371C731.023 623.371 773.11 665.458 773.11 717.185C773.11 724.742 766.963 730.889 759.406 730.889H759.401Z" fill="white"/>
<path d="M466.502 260.629C472.552 260.629 477.45 255.726 477.45 249.681V192.948C477.45 186.904 472.552 182 466.502 182C460.453 182 455.554 186.904 455.554 192.948V249.681C455.554 255.721 460.453 260.629 466.502 260.629Z" fill="white"/>
<path d="M635.346 330.568C638.151 330.568 640.952 329.504 643.091 327.365L683.207 287.249C687.484 282.972 687.484 276.041 683.207 271.764C678.929 267.486 671.999 267.486 667.721 271.764L627.605 311.879C623.328 316.157 623.328 323.087 627.605 327.365C629.739 329.499 632.54 330.568 635.345 330.568H635.346Z" fill="white"/>
<path d="M289.916 327.362C292.055 329.5 294.861 330.565 297.662 330.565C300.468 330.565 303.268 329.5 305.407 327.362C309.684 323.084 309.684 316.154 305.407 311.876L265.291 271.76C261.014 267.483 254.083 267.483 249.806 271.76C245.528 276.038 245.528 282.968 249.806 287.246L289.916 327.362Z" fill="white"/>
<path d="M365.01 272.036C366.756 276.248 370.835 278.799 375.128 278.799C376.523 278.799 377.944 278.534 379.319 277.969C384.905 275.657 387.553 269.251 385.246 263.659L363.533 211.245C361.222 205.653 354.81 202.995 349.224 205.317C343.637 207.629 340.99 214.035 343.296 219.627L365.01 272.036Z" fill="white"/>
<path d="M553.688 277.967C555.063 278.538 556.478 278.797 557.879 278.797C562.172 278.797 566.251 276.251 567.997 272.035L589.71 219.621C592.022 214.029 589.374 207.629 583.783 205.311C578.181 202.989 571.79 205.647 569.473 211.238L547.76 263.653C545.448 269.244 548.106 275.645 553.687 277.966L553.688 277.967Z" fill="white"/>
</svg>
