<svg width="934" height="934" viewBox="0 0 934 934" fill="none" xmlns="http://www.w3.org/2000/svg">
<path d="M376.319 366.014H335.922C333.243 366.014 330.674 367.079 328.781 368.973C326.887 370.866 325.822 373.435 325.822 376.114V557.902C325.822 561.511 327.747 564.844 330.872 566.649C333.996 568.452 337.847 568.452 340.971 566.649C344.096 564.843 346.021 561.511 346.021 557.902V487.207H376.319C384.354 487.207 392.062 484.015 397.742 478.332C403.425 472.651 406.617 464.944 406.617 456.909V396.313C406.617 388.277 403.425 380.57 397.742 374.89C392.061 369.206 384.354 366.014 376.319 366.014L376.319 366.014ZM386.419 456.909C386.419 459.587 385.354 462.156 383.46 464.05C381.567 465.943 378.998 467.008 376.319 467.008H346.021V386.213H376.319C378.998 386.213 381.567 387.278 383.46 389.171C385.354 391.065 386.419 393.634 386.419 396.313V456.909Z" fill="white"/>
<path d="M578.305 366.014H537.908C535.23 366.014 532.661 367.079 530.767 368.973C528.873 370.866 527.809 373.435 527.809 376.114V557.902C527.809 561.511 529.734 564.844 532.858 566.649C535.983 568.452 539.833 568.452 542.958 566.649C546.082 564.843 548.007 561.511 548.007 557.902V487.207H578.305C586.341 487.207 594.048 484.015 599.728 478.332C605.412 472.651 608.603 464.944 608.603 456.909V396.313C608.603 388.277 605.412 380.57 599.728 374.89C594.047 369.206 586.341 366.014 578.305 366.014L578.305 366.014ZM588.405 456.909C588.405 459.587 587.34 462.156 585.447 464.05C583.553 465.943 580.984 467.008 578.305 467.008H548.007V386.213H578.305C580.984 386.213 583.553 387.278 585.447 389.171C587.34 391.065 588.405 393.634 588.405 396.313V456.909Z" fill="white"/>
<path d="M497.511 366.014C494.833 366.014 492.264 367.079 490.37 368.973C488.476 370.866 487.412 373.435 487.412 376.114V456.909H447.014V376.114C447.014 372.505 445.089 369.172 441.964 367.368C438.84 365.564 434.99 365.564 431.865 367.368C428.741 369.173 426.815 372.506 426.815 376.114V557.902C426.815 561.511 428.741 564.844 431.865 566.649C434.99 568.452 438.84 568.452 441.964 566.649C445.089 564.843 447.014 561.511 447.014 557.902V477.107H487.412V557.902C487.412 561.511 489.337 564.844 492.461 566.649C495.586 568.452 499.436 568.452 502.561 566.649C505.685 564.843 507.61 561.511 507.61 557.902V376.114C507.61 373.435 506.546 370.866 504.652 368.973C502.758 367.079 500.189 366.014 497.511 366.014H497.511Z" fill="white"/>
<path d="M618.703 184.226H376.319C375.056 183.925 373.743 183.925 372.481 184.226C371.221 184.657 370.103 185.425 369.249 186.448L268.255 287.441C266.795 288.382 265.72 289.817 265.226 291.481C264.925 292.743 264.925 294.056 265.226 295.319V699.293C265.226 712.685 270.547 725.53 280.015 735.001C289.485 744.469 302.33 749.79 315.722 749.79H618.703C632.095 749.79 644.941 744.469 654.411 735.001C663.879 725.53 669.2 712.685 669.2 699.293V234.722C669.2 221.33 663.879 208.485 654.411 199.015C644.941 189.547 632.095 184.226 618.703 184.226ZM366.219 218.765V254.921C366.219 262.957 363.027 270.664 357.344 276.344C351.663 282.027 343.956 285.219 335.921 285.219H299.765L366.219 218.765ZM649.001 699.29C649.001 707.326 645.809 715.033 640.126 720.713C634.445 726.397 626.739 729.589 618.703 729.589H315.722C307.687 729.589 299.98 726.397 294.299 720.713C288.616 715.033 285.424 707.326 285.424 699.29V305.415H335.921C349.313 305.415 362.158 300.094 371.629 290.626C381.097 281.156 386.418 268.311 386.418 254.919V204.422H618.703C626.739 204.422 634.446 207.614 640.126 213.297C645.809 218.978 649.001 226.684 649.001 234.72V699.29Z" fill="white"/>
</svg>
