<svg width="934" height="934" viewBox="0 0 934 934" fill="none" xmlns="http://www.w3.org/2000/svg">
<path d="M710.95 719.134C728.092 719.134 744.53 712.324 756.648 700.206C768.772 688.082 775.581 671.643 775.581 654.502C775.581 637.361 768.772 620.923 756.648 608.799C744.529 596.68 728.091 589.871 710.95 589.871C693.808 589.871 677.37 596.68 665.246 608.799C653.128 620.923 646.318 637.361 646.318 654.502C646.335 671.639 653.15 688.071 665.263 700.185C677.382 712.303 693.815 719.118 710.951 719.135L710.95 719.134ZM710.95 614.491C721.563 614.491 731.735 618.707 739.242 626.209C746.744 633.716 750.96 643.888 750.96 654.501C750.96 665.114 746.744 675.286 739.242 682.794C731.735 690.296 721.563 694.511 710.95 694.511C700.337 694.511 690.159 690.296 682.657 682.794C675.156 675.286 670.94 665.114 670.94 654.501C670.957 643.894 675.177 633.726 682.674 626.23C690.176 618.728 700.344 614.507 710.951 614.49L710.95 614.491Z" fill="white"/>
<path d="M713.159 432.902C713.159 429.638 711.862 426.505 709.553 424.197C707.245 421.888 704.112 420.591 700.848 420.591H528.495C521.697 420.591 516.185 426.104 516.185 432.902C516.185 439.701 521.697 445.213 528.495 445.213H700.848C704.112 445.213 707.245 443.916 709.553 441.608C711.862 439.299 713.159 436.167 713.159 432.902Z" fill="white"/>
<path d="M700.848 272.861H528.495C521.697 272.861 516.185 278.373 516.185 285.172C516.185 291.97 521.697 297.482 528.495 297.482H700.848C707.646 297.482 713.159 291.97 713.159 285.172C713.159 278.373 707.646 272.861 700.848 272.861Z" fill="white"/>
<path d="M220.722 432.902V433.397C220.673 434.029 220.673 434.666 220.722 435.304C220.937 436.062 221.162 436.826 221.398 437.579C221.646 438.156 221.932 438.711 222.261 439.245V439.673C222.794 440.437 223.415 441.141 224.108 441.767L224.784 442.322L226.323 443.432L227.125 443.861C227.719 444.136 228.34 444.361 228.972 444.537H229.708C230.78 444.916 231.901 445.142 233.033 445.213H454.629C455.564 445.213 456.492 445.114 457.399 444.905H458.136C458.773 444.73 459.389 444.504 459.982 444.229L460.785 443.801L462.324 442.691L463 442.135C463.692 441.509 464.313 440.805 464.846 440.041V439.613C465.176 439.08 465.462 438.525 465.709 437.947C465.946 437.195 466.171 436.436 466.385 435.672C466.435 435.035 466.435 434.397 466.385 433.765L466.94 432.902V285.172V284.677C466.99 284.045 466.99 283.407 466.94 282.77C466.726 282.011 466.501 281.247 466.264 280.494C465.913 279.972 465.522 279.478 465.094 279.016V278.587C464.643 277.922 464.126 277.301 463.555 276.741L461.708 275.268L460.538 274.652L459.614 274.158L458.075 273.663H457.339C456.52 273.58 455.695 273.58 454.877 273.663H233.027C232.247 273.586 231.467 273.586 230.686 273.663L229.026 274.158H228.411L227.059 274.894L226.322 275.323H226.317C225.888 275.625 225.476 275.955 225.086 276.306L224.47 276.801C223.899 277.362 223.382 277.983 222.931 278.648V279.076C222.602 279.61 222.316 280.165 222.068 280.742C221.832 281.495 221.607 282.253 221.392 283.017C221.343 283.655 221.343 284.292 221.392 284.924L220.716 285.171L220.722 432.902ZM442.318 409.941L366.051 359.037L442.318 308.194V409.941ZM413.943 420.592H273.72L343.831 373.81L413.943 420.592ZM343.831 344.264L273.72 297.483H413.943L343.831 344.264ZM321.611 359.037L245.344 409.881V308.195L321.611 359.037Z" fill="white"/>
<path d="M645.455 506.767C645.455 503.503 644.158 500.37 641.85 498.062C639.542 495.754 636.409 494.457 633.144 494.457H233.033C226.235 494.457 220.723 499.969 220.723 506.767C220.723 513.566 226.235 519.078 233.033 519.078H633.144C636.409 519.078 639.542 517.781 641.85 515.473C644.158 513.165 645.455 510.032 645.455 506.767Z" fill="white"/>
<path d="M233.033 568.322C226.235 568.322 220.723 573.834 220.723 580.633C220.723 587.431 226.235 592.944 233.033 592.944H454.629C461.428 592.944 466.94 587.431 466.94 580.633C466.94 573.834 461.428 568.322 454.629 568.322H233.033Z" fill="white"/>
<path d="M700.848 346.726H528.495C521.697 346.726 516.185 352.239 516.185 359.037C516.185 365.836 521.697 371.348 528.495 371.348H700.848C707.646 371.348 713.159 365.836 713.159 359.037C713.159 352.239 707.646 346.726 700.848 346.726Z" fill="white"/>
<path d="M125.317 716.053H559.28C560.56 716.025 561.824 715.794 563.033 715.377C568.804 729.457 576.553 742.636 586.055 754.524C589.001 758.195 593.777 759.866 598.366 758.833L629.143 752.001C640.443 761.454 653.293 768.89 667.12 773.974L676.721 804.256L676.727 804.261C678.134 808.751 681.981 812.049 686.636 812.752C702.629 815.171 718.898 815.171 734.896 812.752C739.535 812.06 743.376 808.79 744.805 804.322L754.407 774.04V774.034C768.235 768.95 781.084 761.52 792.383 752.062L823.161 758.893C827.755 759.926 832.531 758.256 835.472 754.584C845.617 741.944 853.773 727.83 859.664 712.727C861.373 708.353 860.439 703.384 857.263 699.927L836.273 676.41C838.835 661.896 838.835 647.04 836.273 632.525L857.758 609.074V609.069C860.934 605.612 861.863 600.643 860.159 596.269C854.268 581.166 846.106 567.052 835.967 554.412C833.021 550.74 828.245 549.07 823.656 550.103L792.879 556.934C781.579 547.476 768.73 540.045 754.902 534.962L745.301 504.68L745.295 504.674C743.872 500.206 740.03 496.936 735.386 496.244C719.393 493.836 703.124 493.836 687.126 496.244C682.471 496.947 678.624 500.245 677.217 504.735L667.615 535.017V535.022C653.788 540.106 640.938 547.542 629.639 556.995L598.862 550.163C594.267 549.13 589.491 550.801 586.551 554.472C576.405 567.113 568.249 581.233 562.358 596.329C560.649 600.704 561.583 605.672 564.76 609.135L586.244 632.586C583.677 647.1 583.677 661.956 586.244 676.47L568.822 695.492C566.392 692.799 562.902 691.315 559.281 691.431H125.318C113.315 691.431 102.73 679.428 99.0365 666.809H553.118C559.917 666.809 565.429 661.297 565.429 654.498C565.429 647.7 559.917 642.187 553.118 642.187H183.426C176.913 641.995 171.675 636.757 171.483 630.245V235.565C171.676 229.052 176.913 223.814 183.426 223.622H750.402C756.942 223.781 762.213 229.024 762.405 235.565V488.311C762.405 495.109 767.917 500.622 774.716 500.622C781.514 500.622 787.027 495.109 787.027 488.311V235.565C786.928 225.897 783.048 216.654 776.211 209.816C769.374 202.978 760.129 199.099 750.462 199H183.43C173.762 199.099 164.519 202.979 157.681 209.816C150.843 216.653 146.964 225.898 146.865 235.565V630.245C146.87 634.312 147.557 638.346 148.898 642.187H85.3109C78.5125 642.187 73 647.7 73 654.498V657.576C73 685.276 95.4072 716.052 125.322 716.052L125.317 716.053ZM611.042 677.394C607.574 662.329 607.574 646.666 611.042 631.601C611.937 627.672 610.855 623.561 608.151 620.582L587.778 598.362C591.378 590.492 595.725 582.989 600.765 575.955L630.19 582.478H630.184C634.131 583.341 638.247 582.215 641.204 579.461C652.531 568.953 666.079 561.121 680.846 556.566C684.715 555.379 687.755 552.361 688.969 548.503L698.016 519.759L698.021 519.753C706.617 518.94 715.273 518.94 723.874 519.753L732.92 548.498V548.503C734.14 552.361 737.179 555.378 741.049 556.566C755.871 561.083 769.485 568.888 780.873 579.401C783.829 582.154 787.946 583.281 791.892 582.418L821.317 575.894H821.311C826.351 582.929 830.698 590.431 834.304 598.296L813.931 620.516L813.926 620.521C811.222 623.5 810.139 627.611 811.035 631.535C814.503 646.605 814.503 662.263 811.035 677.333C810.139 681.257 811.222 685.374 813.926 688.352L834.298 710.573H834.304C830.698 718.443 826.351 725.945 821.311 732.98L791.886 726.456H791.892C787.946 725.593 783.829 726.72 780.873 729.473C769.545 739.982 755.997 747.807 741.23 752.369C737.361 753.556 734.322 756.573 733.107 760.431L724.061 789.175L724.055 789.181C715.46 789.994 706.803 789.994 698.202 789.181L689.156 760.437V760.431C687.936 756.573 684.902 753.556 681.033 752.369C666.266 747.807 652.718 739.981 641.391 729.473C638.434 726.72 634.318 725.593 630.371 726.456L600.946 732.98C595.912 725.945 591.559 718.443 587.959 710.573L608.332 688.352C610.959 685.352 611.965 681.274 611.042 677.393L611.042 677.394Z" fill="white"/>
</svg>
