<svg width="934" height="934" viewBox="0 0 934 934" fill="none" xmlns="http://www.w3.org/2000/svg">
<path d="M558.105 386.211H598.502C602.11 386.211 605.443 384.286 607.248 381.161C609.051 378.037 609.051 374.187 607.248 371.062C605.443 367.938 602.11 366.012 598.502 366.012H558.105C550.069 366.012 542.362 369.204 536.682 374.887C530.999 380.568 527.807 388.275 527.807 396.31V446.807C527.807 454.842 530.998 462.549 536.682 468.23C542.363 473.913 550.069 477.105 558.105 477.105H578.303C580.982 477.105 583.551 478.169 585.444 480.063C587.338 481.956 588.403 484.525 588.403 487.204V537.7C588.403 540.379 587.338 542.948 585.444 544.842C583.551 546.735 580.982 547.8 578.303 547.8H537.906C534.298 547.8 530.965 549.725 529.16 552.85C527.357 555.974 527.357 559.824 529.16 562.949C530.965 566.073 534.298 567.998 537.906 567.998H578.303C586.338 567.998 594.046 564.807 599.726 559.123C605.409 553.443 608.601 545.736 608.601 537.701V487.204C608.601 479.169 605.409 471.462 599.726 465.781C594.045 460.098 586.338 456.906 578.303 456.906H558.105C555.426 456.906 552.857 455.842 550.963 453.948C549.07 452.054 548.005 449.485 548.005 446.807V396.31C548.005 393.632 549.07 391.063 550.963 389.169C552.857 387.276 555.426 386.211 558.105 386.211V386.211Z" fill="white"/>
<path d="M457.113 386.211H497.51C501.118 386.211 504.451 384.286 506.256 381.161C508.059 378.037 508.059 374.187 506.256 371.062C504.451 367.938 501.118 366.012 497.51 366.012H457.113C449.077 366.012 441.37 369.204 435.69 374.887C430.007 380.568 426.815 388.275 426.815 396.31V446.807C426.815 454.842 430.006 462.549 435.69 468.23C441.371 473.913 449.077 477.105 457.113 477.105H477.311C479.99 477.105 482.559 478.169 484.452 480.063C486.346 481.956 487.411 484.525 487.411 487.204V537.7C487.411 540.379 486.346 542.948 484.452 544.842C482.559 546.735 479.99 547.8 477.311 547.8H436.914C433.306 547.8 429.973 549.725 428.168 552.85C426.365 555.974 426.365 559.824 428.168 562.949C429.973 566.073 433.306 567.998 436.914 567.998H477.311C485.346 567.998 493.054 564.807 498.734 559.123C504.417 553.443 507.609 545.736 507.609 537.701V487.204C507.609 479.169 504.417 471.462 498.734 465.781C493.053 460.098 485.346 456.906 477.311 456.906H457.113C454.434 456.906 451.865 455.842 449.971 453.948C448.078 452.054 447.013 449.485 447.013 446.807V396.31C447.013 393.632 448.078 391.063 449.971 389.169C451.865 387.276 454.434 386.211 457.113 386.211V386.211Z" fill="white"/>
<path d="M366.22 386.211C371.577 386.211 376.714 388.338 380.502 392.127C384.291 395.914 386.418 401.052 386.418 406.409C386.418 410.018 388.343 413.35 391.468 415.155C394.592 416.959 398.443 416.959 401.567 415.155C404.692 413.35 406.617 410.017 406.617 406.409C406.617 391.978 398.918 378.64 386.418 371.424C373.918 364.209 358.521 364.209 346.021 371.424C333.521 378.64 325.823 391.978 325.823 406.409V527.601C325.823 542.032 333.521 555.37 346.021 562.586C358.521 569.801 373.918 569.801 386.418 562.586C398.918 555.37 406.617 542.032 406.617 527.601C406.617 523.992 404.692 520.659 401.567 518.854C398.443 517.051 394.593 517.051 391.468 518.854C388.343 520.66 386.418 523.992 386.418 527.601C386.418 534.817 382.568 541.485 376.319 545.094C370.07 548.702 362.37 548.702 356.12 545.094C349.871 541.485 346.021 534.818 346.021 527.601V406.409C346.021 401.052 348.148 395.914 351.937 392.127C355.725 388.337 360.862 386.211 366.22 386.211Z" fill="white"/>
<path d="M618.701 184.226H376.318C375.055 183.925 373.743 183.925 372.48 184.226C371.22 184.657 370.103 185.425 369.248 186.447L268.255 287.44C266.795 288.381 265.72 289.816 265.226 291.48C264.925 292.743 264.925 294.055 265.226 295.318V699.29C265.226 712.682 270.547 725.527 280.015 734.997C289.485 744.465 302.33 749.786 315.722 749.786H618.701C632.093 749.786 644.938 744.465 654.408 734.997C663.876 725.527 669.197 712.682 669.197 699.29V234.722C669.197 221.33 663.876 208.485 654.408 199.015C644.938 189.547 632.093 184.226 618.701 184.226ZM366.219 218.765V254.921C366.219 262.956 363.027 270.663 357.344 276.344C351.663 282.027 343.956 285.219 335.921 285.219H299.765L366.219 218.765ZM648.999 699.287C648.999 707.322 645.807 715.029 640.124 720.71C634.443 726.393 626.736 729.585 618.701 729.585H315.722C307.687 729.585 299.98 726.393 294.299 720.71C288.616 715.029 285.424 707.322 285.424 699.287V305.414H335.921C349.313 305.414 362.158 300.093 371.628 290.625C381.096 281.155 386.417 268.31 386.417 254.918V204.422H618.701C626.736 204.422 634.443 207.613 640.124 213.297C645.807 218.977 648.999 226.684 648.999 234.719V699.287Z" fill="white"/>
</svg>
