<svg width="934" height="934" viewBox="0 0 934 934" fill="none" xmlns="http://www.w3.org/2000/svg">
<path d="M576.858 183.391C591.374 183.391 603.249 195.266 603.249 209.782V724.455C603.249 738.971 591.374 750.846 576.858 750.846L357.792 750.85C343.276 750.85 331.401 738.976 331.401 724.459V209.787C331.401 195.27 343.276 183.396 357.792 183.396L576.858 183.391V183.391ZM576.858 157H357.792C328.758 157 305.004 180.754 305.004 209.788V724.46C305.004 753.494 328.758 777.248 357.792 777.248H576.198C605.232 777.248 628.986 753.494 628.986 724.46V209.788C629.649 180.754 605.894 157 576.862 157H576.858Z" fill="white"/>
<path d="M576.858 185.371C591.375 185.371 603.25 197.246 603.25 211.762V647.254H331.397V211.762C331.397 197.246 343.272 185.371 357.788 185.371H576.854H576.858ZM576.854 158.98H357.788C328.754 158.98 305 182.734 305 211.768V673.653H628.98V211.768C629.642 182.734 605.888 158.98 576.855 158.98H576.854Z" fill="white"/>
<path d="M493.72 711.261C493.72 726.202 481.611 738.315 466.67 738.315C451.725 738.315 439.616 726.202 439.616 711.261C439.616 696.32 451.725 684.207 466.67 684.207C481.611 684.207 493.72 696.32 493.72 711.261Z" fill="white"/>
</svg>
