<svg width="934" height="934" viewBox="0 0 934 934" fill="none" xmlns="http://www.w3.org/2000/svg">
<path d="M656.886 195H277.114C255.341 195.025 234.471 203.686 219.079 219.079C203.682 234.476 195.025 255.345 195 277.114V656.886C195.025 678.655 203.681 699.524 219.079 714.921C234.471 730.314 255.341 738.975 277.114 739H656.886C678.659 738.975 699.529 730.314 714.921 714.921C730.318 699.524 738.975 678.655 739 656.886V277.114C738.975 255.345 730.319 234.476 714.921 219.079C699.529 203.686 678.659 195.025 656.886 195V195ZM219.419 277.114C219.435 261.82 225.521 247.15 236.336 236.335C247.155 225.516 261.82 219.434 277.119 219.418H656.891C672.19 219.434 686.855 225.516 697.675 236.335C708.49 247.15 714.575 261.819 714.592 277.114V549.374L628.628 472.995C623.719 468.613 616.215 468.924 611.687 473.698L530.636 558.775L450.88 473.759C448.587 471.315 445.387 469.921 442.035 469.909H441.974H441.978C438.643 469.909 435.455 471.266 433.149 473.673L228.547 687.746C222.616 678.541 219.452 667.833 219.428 656.883L219.419 277.114ZM245.691 705.154L441.892 499.861L643.314 714.571H277.124C265.953 714.563 255.028 711.285 245.697 705.146L245.691 705.154ZM674.076 711.673L547.353 576.6L621.219 499.068L714.585 582.019V656.882C714.544 669.136 710.591 681.058 703.304 690.913C696.016 700.767 685.773 708.042 674.071 711.672L674.076 711.673Z" fill="white"/>
<path d="M509.988 417.798C526.007 417.798 541.362 411.434 552.689 400.108C564.01 388.782 570.374 373.418 570.37 357.404C570.37 341.39 564.006 326.031 552.68 314.704C541.355 303.383 525.994 297.023 509.977 297.023C493.962 297.027 478.603 303.391 467.281 314.717C455.955 326.042 449.595 341.403 449.595 357.417C449.616 373.427 455.984 388.779 467.306 400.097C478.627 411.418 493.979 417.782 509.989 417.799L509.988 417.798ZM509.988 321.439V321.435C519.528 321.439 528.679 325.228 535.424 331.976C542.168 338.724 545.956 347.871 545.956 357.412C545.956 366.952 542.163 376.099 535.42 382.848C528.676 389.592 519.525 393.38 509.984 393.384C500.444 393.384 491.297 389.595 484.548 382.852C477.804 376.104 474.012 366.957 474.012 357.416C474.02 347.876 477.813 338.729 484.557 331.985C491.305 325.241 500.449 321.448 509.988 321.435V321.439Z" fill="white"/>
</svg>
