<svg width="934" height="934" viewBox="0 0 934 934" fill="none" xmlns="http://www.w3.org/2000/svg">
<path d="M803.503 615.753H784.723V262.014C784.723 223.735 753.37 192 715.091 192H218.003C179.724 192 148.371 223.735 148.371 262.014V615.753H129.591C126.548 615.696 123.604 616.863 121.43 618.991C119.25 621.119 118.016 624.033 118 627.08V671.563C118 709.842 149.161 741.577 187.441 741.577H745.659C783.938 741.577 815.1 709.842 815.1 671.563V627.08C815.085 624.033 813.85 621.119 811.67 618.991C809.496 616.863 806.552 615.696 803.509 615.753H803.503ZM171.515 262.014C171.515 236.498 192.485 215.14 218.007 215.14H715.095C740.617 215.14 761.587 236.498 761.587 262.014V615.753H726.877V265.346C726.985 262.376 725.864 259.499 723.778 257.387C721.691 255.274 718.824 254.117 715.854 254.189H217.245C214.275 254.117 211.409 255.274 209.322 257.387C207.235 259.499 206.114 262.376 206.223 265.346V615.753H171.513L171.515 262.014ZM703.737 615.753H551.422C548.204 615.706 545.116 617.018 542.91 619.358L531.169 632.374C522.43 641.946 510.1 647.451 497.142 647.57H435.965C422.995 647.426 410.671 641.904 401.932 632.318L390.191 619.529C388.006 617.142 384.923 615.773 381.684 615.753H229.37V277.326H703.741L703.737 615.753ZM791.958 671.563C791.958 697.079 771.173 718.436 745.657 718.436H187.44C161.923 718.436 141.138 697.079 141.138 671.563V638.893H376.612L384.917 648.123C398.052 662.42 416.544 670.607 435.96 670.71H497.137C516.559 670.607 535.055 662.42 548.189 648.123L556.485 638.893H791.958L791.958 671.563Z" fill="white"/>
<path d="M358.54 466.558C368.943 466.563 378.916 462.431 386.272 455.076C393.622 447.721 397.755 437.751 397.755 427.349C397.755 416.951 393.628 406.978 386.272 399.622C378.917 392.266 368.944 388.134 358.545 388.134C348.143 388.134 338.169 392.266 330.818 399.622C323.463 406.972 319.331 416.946 319.331 427.349C319.341 437.741 323.478 447.709 330.829 455.06C338.179 462.415 348.148 466.547 358.54 466.558L358.54 466.558ZM358.54 411.274C365.043 411.274 370.906 415.19 373.389 421.197C375.879 427.204 374.505 434.115 369.908 438.712C365.311 443.309 358.395 444.683 352.393 442.198C346.386 439.709 342.471 433.846 342.471 427.349C342.481 418.475 349.671 411.286 358.539 411.275L358.54 411.274Z" fill="white"/>
<path d="M385.277 459.55C381.589 459.555 378.128 461.317 375.948 464.292C371.883 469.839 365.417 473.119 358.542 473.119C351.662 473.119 345.195 469.839 341.135 464.292C338.956 461.317 335.495 459.555 331.807 459.55C322.194 459.592 312.995 463.471 306.255 470.32C299.509 477.169 295.78 486.425 295.888 496.037V533.857C295.79 536.812 296.927 539.678 299.024 541.765C301.116 543.857 303.987 544.983 306.942 544.88H410.143C413.154 545.004 416.083 543.898 418.262 541.817C420.442 539.74 421.687 536.868 421.713 533.857V496.037C421.702 486.373 417.865 477.102 411.031 470.263C404.203 463.424 394.942 459.571 385.277 459.55H385.277ZM398.572 521.739H319.029V496.036C318.931 490.484 322.334 485.473 327.531 483.526C335.103 490.923 345.051 495.391 355.603 496.129C366.161 496.873 376.635 493.841 385.163 487.576C386.821 486.341 388.396 484.988 389.868 483.526C395.111 485.453 398.592 490.453 398.571 496.036L398.572 521.739Z" fill="white"/>
<path d="M462.209 371.328C462.209 368.26 460.99 365.316 458.821 363.146C456.651 360.977 453.707 359.758 450.639 359.758H265.519C259.129 359.758 253.948 364.939 253.948 371.328V560.785C253.948 563.854 255.167 566.798 257.337 568.967C259.506 571.136 262.45 572.355 265.519 572.355H450.639C453.707 572.355 456.651 571.136 458.821 568.967C460.99 566.798 462.209 563.854 462.209 560.785V371.328ZM277.089 382.898H439.069V550.67H277.089V382.898Z" fill="white"/>
<path d="M482.003 426.294H579.744H579.739C586.133 426.294 591.309 421.113 591.309 414.724C591.309 408.335 586.133 403.154 579.739 403.154H482.003C475.614 403.154 470.433 408.335 470.433 414.724C470.433 421.113 475.614 426.294 482.003 426.294H482.003Z" fill="white"/>
<path d="M482.003 478.354H667.11C673.499 478.354 678.68 473.173 678.68 466.784C678.68 460.394 673.499 455.214 667.11 455.214H482.003C475.614 455.214 470.433 460.394 470.433 466.784C470.433 473.173 475.614 478.354 482.003 478.354Z" fill="white"/>
<path d="M482.003 530.412H667.11C673.499 530.412 678.68 525.231 678.68 518.842C678.68 512.453 673.499 507.272 667.11 507.272H482.003C475.614 507.272 470.433 512.453 470.433 518.842C470.433 525.231 475.614 530.412 482.003 530.412Z" fill="white"/>
</svg>
