<svg width="934" height="934" viewBox="0 0 934 934" fill="none" xmlns="http://www.w3.org/2000/svg">
<path d="M316.61 104.002H164.191C157.075 104.002 152 110.097 152 116.193V240.16C152 247.277 158.096 252.352 164.191 252.352H227.189V290.966H164.191C157.075 290.966 152 297.062 152 303.158V388.511C152 395.627 158.096 400.702 164.191 400.702H227.189V434.234H164.191C157.075 434.234 152 440.33 152 446.425V531.778C152 538.895 158.096 543.97 164.191 543.97H227.189V577.502H164.191C157.075 577.502 152 583.597 152 589.693V675.046C152 682.162 158.096 687.237 164.191 687.237H316.61C323.727 687.237 328.802 681.142 328.802 675.046V589.693C328.802 582.577 322.706 577.502 316.61 577.502H253.612V543.97H316.61C323.727 543.97 328.802 537.874 328.802 531.778V449.487C328.802 442.37 322.706 437.295 316.61 437.295H253.612V403.763H316.61C323.727 403.763 328.802 397.667 328.802 391.572V306.219C328.802 299.102 322.706 294.027 316.61 294.027H253.612V255.413H316.61C323.727 255.413 328.802 249.317 328.802 243.221V116.198C328.802 109.082 323.72 104 316.61 104V104.002ZM303.399 665.92H177.397V605.97H303.393L303.399 665.92ZM303.399 521.63H176.383V461.68H303.399V521.63ZM303.399 377.34H176.383V317.39H303.399V377.34ZM303.399 227.969H177.402V129.405H304.418L304.411 227.969H303.399Z" fill="white"/>
<path d="M543.204 104.001H390.785C383.669 104.001 378.594 110.097 378.594 116.193V240.16C378.594 247.277 384.689 252.352 390.785 252.352H453.783V290.966H390.785C383.669 290.966 378.594 297.062 378.594 303.157V388.51C378.594 395.627 384.689 400.702 390.785 400.702H453.783V434.234H390.785C383.669 434.234 378.594 440.329 378.594 446.425V531.778C378.594 538.894 384.689 543.969 390.785 543.969L466.995 543.984H543.204C550.32 543.984 555.395 537.888 555.395 531.792V449.488C555.395 442.371 549.3 437.296 543.204 437.296H480.206V403.764H543.204C550.32 403.764 555.395 397.669 555.395 391.573V306.22C555.395 299.104 549.3 294.029 543.204 294.029H480.206V255.414H543.204C550.32 255.414 555.395 249.318 555.395 243.223V116.2C555.395 109.083 550.32 104.001 543.204 104.001V104.001ZM529.992 521.629H402.976V461.68H529.992V521.629ZM529.992 377.339H402.976V317.39H529.992V377.339ZM529.992 227.969H403.996V129.405H531.012V227.969H529.992Z" fill="white"/>
<path d="M769.801 253.376C776.917 253.376 781.992 247.28 781.992 241.184L781.999 116.203C781.999 109.086 775.903 104.011 769.808 104.011H617.389C610.272 104.011 605.197 110.107 605.197 116.203V240.17C605.197 247.286 611.293 252.361 617.389 252.361H680.387V290.976H617.389C610.272 290.976 605.197 297.072 605.197 303.167V388.52C605.197 395.637 611.293 400.712 617.389 400.712H680.387V434.244H617.389C610.272 434.244 605.197 440.339 605.197 446.435V531.788C605.197 538.904 611.293 543.979 617.389 543.979H680.387V577.511H617.389C610.272 577.511 605.197 583.607 605.197 589.703V675.056C605.197 682.172 611.293 687.247 617.389 687.247H680.387V720.779H617.389C610.272 720.779 605.197 726.875 605.197 732.971V818.323C605.197 825.44 611.293 830.515 617.389 830.515H769.808C776.924 830.515 781.999 824.419 781.999 818.323V732.971C781.999 725.854 775.903 720.779 769.808 720.779H706.81V687.247H769.808C776.924 687.247 781.999 681.151 781.999 675.056V589.703C781.999 582.586 775.903 577.511 769.808 577.511H706.81V543.979H769.808C776.924 543.979 781.999 537.884 781.999 531.788V449.491C781.999 442.374 775.903 437.299 769.808 437.299H706.81V403.767H769.808C776.924 403.767 781.999 397.672 781.999 391.576V306.223C781.999 299.107 775.903 294.032 769.808 294.032H706.81V255.417L769.8 255.41L769.801 253.376ZM756.596 810.213H630.594V750.264H757.61V810.213H756.596ZM756.596 665.918H629.58V605.968H756.596V665.918ZM756.596 521.628H629.58V461.678H756.596V521.628ZM756.596 377.338H629.58V317.388H756.596V377.338ZM630.594 129.403H757.61V227.967H631.614L631.607 129.403H630.594Z" fill="white"/>
</svg>
