<svg width="934" height="934" viewBox="0 0 934 934" fill="none" xmlns="http://www.w3.org/2000/svg">
<path d="M198.28 410.9C206.723 410.9 214.468 408.356 221.058 404.076L248.461 428.125C247.423 431.825 246.609 435.641 246.609 439.687C246.609 462.811 265.458 481.777 288.699 481.777C311.823 481.777 330.789 462.928 330.789 439.687C330.789 432.171 328.708 425.351 325.237 419.219L377.271 353.777C383.398 357.248 390.334 359.329 397.851 359.329C405.021 359.329 411.729 357.365 417.738 354.128L453.004 392.402C450.694 397.602 449.422 403.272 449.422 409.17C449.422 432.411 468.271 451.26 491.512 451.26C514.753 451.26 533.602 432.411 533.602 409.17C533.602 403.043 532.213 397.374 529.903 392.056L589.335 327.076C594.307 329.157 599.742 330.312 605.406 330.312C628.647 330.312 647.496 311.463 647.496 288.222C647.496 264.981 628.647 246.132 605.406 246.132C582.164 246.132 563.315 264.981 563.315 288.222C563.315 297.239 566.323 305.681 571.177 312.5L514.87 374.126C508.163 369.618 500.184 366.956 491.512 366.956C482.723 366.956 474.632 369.618 467.924 374.238L434.277 337.817C437.748 331.69 439.941 324.754 439.941 317.12C439.941 293.879 421.092 275.03 397.851 275.03C374.727 275.03 355.761 293.879 355.761 317.12C355.761 324.29 357.725 330.998 360.961 337.007L308.698 402.795C302.683 399.559 295.981 397.478 288.811 397.478C278.175 397.478 268.46 401.64 261.062 408.23L236.432 386.608C238.976 381.173 240.478 375.163 240.478 368.803C240.478 345.562 221.629 326.712 198.387 326.712C175.146 326.712 156.297 345.562 156.297 368.803C156.308 392.053 175.04 410.898 198.281 410.898L198.28 410.9ZM605.283 269.382C615.69 269.382 624.244 277.824 624.244 288.343C624.244 298.749 615.802 307.303 605.283 307.303C594.759 307.303 586.322 298.861 586.322 288.343C586.317 277.819 594.76 269.382 605.283 269.382ZM510.351 409.06C510.351 419.467 501.908 428.021 491.39 428.021C480.866 428.021 472.429 419.579 472.429 409.06C472.429 398.536 480.872 390.099 491.39 390.099C501.914 390.099 510.351 398.654 510.351 409.06ZM397.734 298.292C408.141 298.292 416.695 306.734 416.695 317.253C416.695 327.777 408.253 336.214 397.734 336.214C387.328 336.214 378.774 327.771 378.774 317.253C378.774 306.734 387.328 298.292 397.734 298.292ZM288.701 420.623C299.107 420.623 307.662 429.065 307.662 439.584C307.662 449.991 299.219 458.545 288.701 458.545C278.294 458.545 269.74 450.102 269.74 439.584C269.74 429.177 278.294 420.623 288.701 420.623ZM198.282 349.863C208.688 349.863 217.243 358.305 217.243 368.823C217.243 379.347 208.8 387.784 198.282 387.784C187.758 387.784 179.321 379.23 179.321 368.823C179.321 358.417 187.875 349.863 198.282 349.863Z" fill="white"/>
<path d="M172.497 221.51H244.993C251.354 221.51 256.554 216.309 256.554 209.948C256.554 203.587 251.354 198.386 244.993 198.386H172.497C166.136 198.386 160.936 203.587 160.936 209.948C160.936 216.309 166.136 221.51 172.497 221.51Z" fill="white"/>
<path d="M172.497 260.251H310.895C317.256 260.251 322.457 255.05 322.457 248.689C322.457 242.328 317.256 237.127 310.895 237.127H172.497C166.136 237.127 160.936 242.328 160.936 248.689C160.936 255.045 166.136 260.251 172.497 260.251Z" fill="white"/>
<path d="M837 457.041C837 382.581 776.412 322.105 702.064 322.105C700.211 322.105 698.481 322.334 696.629 322.334V188.564C696.629 161.74 674.777 140 648.065 140H145.563C118.851 139.883 97 161.734 97 188.564V562.139C97 588.963 118.851 610.702 145.563 610.702H322.008C327.209 629.781 323.28 666.547 305.82 693.259H276.218C269.857 693.259 264.656 698.459 264.656 704.82C264.656 711.182 269.857 716.382 276.218 716.382H517.528C523.889 716.382 529.09 711.182 529.09 704.82C529.09 698.459 523.889 693.259 517.528 693.259H487.814C470.355 666.664 466.426 629.781 471.626 610.702H646.218V633.363C646.218 639.724 651.418 644.925 657.78 644.925H658.243V750.259C658.243 774.537 678.013 794.196 702.179 794.196C726.458 794.196 746.116 774.425 746.116 750.259V644.925H746.462C752.823 644.925 758.024 639.724 758.024 633.363V579.712C805.203 558.441 836.998 511.15 836.998 457.035L837 457.041ZM722.878 750.38C722.878 761.824 713.514 771.193 702.065 771.193C690.62 771.193 681.252 761.829 681.252 750.38V645.163H722.879L722.878 750.38ZM145.562 163.007H647.956C661.945 163.007 673.395 174.452 673.395 188.447V325.004C612.69 338.185 566.905 392.3 566.905 456.932C566.905 471.268 569.215 485.027 573.378 498.096L120.124 498.09V188.562C120.124 174.456 131.574 163.006 145.564 163.006L145.562 163.007ZM461.222 693.268H332.418C345.135 667.254 350.458 634.878 345.944 610.712H447.807C443.182 634.873 448.505 667.248 461.222 693.268H461.222ZM145.562 587.588C131.573 587.588 120.123 576.143 120.123 562.149V521.22H583.311C597.189 546.888 619.04 567.583 646.097 579.844V587.589L145.562 587.588ZM734.897 621.927H669.338V587.934C672.574 588.743 675.928 589.552 679.282 590.133C687.027 591.405 694.425 592.097 702.059 592.097C709.693 592.097 717.203 591.517 724.954 590.133C728.308 589.552 731.662 588.743 734.898 587.934L734.897 621.927ZM721.024 567.237C708.19 569.436 695.931 569.436 683.097 567.237C646.214 560.993 616.383 537.289 601.122 505.377C601.005 505.148 600.893 505.031 600.893 504.914C594.068 490.345 590.257 474.157 590.257 457.043C590.257 395.416 640.438 345.236 702.064 345.236C763.69 345.236 813.871 395.416 813.871 457.043C813.871 511.733 774.788 558.102 721.025 567.236L721.024 567.237Z" fill="white"/>
<path d="M790.981 461.088C790.981 411.253 750.398 370.669 700.562 370.669C695.127 370.669 690.735 374.486 689.575 379.686C649.455 385.121 618.351 419.461 618.351 461.087C618.351 501.324 647.027 535.435 686.8 542.253C691.543 542.945 696.052 543.408 700.678 543.408C705.07 543.408 709.696 543.062 714.556 542.253C750.514 536.126 777.342 507.451 782.08 472.185C787.164 470.918 790.98 466.521 790.98 461.086L790.981 461.088ZM766.932 449.526H712.124V394.836C739.991 399.696 762.076 421.665 766.932 449.526ZM710.736 519.365C703.566 520.521 697.21 520.403 690.502 519.365C662.061 514.511 641.476 489.997 641.476 461.093C641.476 432.417 661.944 408.485 688.995 403.166V461.093C688.995 467.454 694.196 472.655 700.557 472.655H758.483C753.863 496.242 735.13 515.203 710.735 519.365L710.736 519.365Z" fill="white"/>
<path d="M420.853 543.642H377.497C371.136 543.642 365.935 548.843 365.935 555.204C365.935 561.565 371.136 566.766 377.497 566.766H420.853C427.214 566.766 432.415 561.565 432.415 555.204C432.415 548.848 427.331 543.642 420.853 543.642Z" fill="white"/>
</svg>
