<svg width="934" height="934" viewBox="0 0 934 934" fill="none" xmlns="http://www.w3.org/2000/svg">
<path d="M239.083 692.149C255.219 713.232 272.207 724.428 291.028 726.367C323.835 729.748 354.048 703.676 386.045 676.074C438.19 631.08 492.112 584.555 570.067 634.452C660.148 692.113 708.417 662.847 729.174 640.271C790.101 574.013 769.942 410.347 709.864 331.848C614.974 207.864 432.183 187.817 302.39 287.152C172.599 386.492 144.195 568.168 239.084 692.153L239.083 692.149ZM689.935 347.096C748.247 423.286 759.314 570.421 710.701 623.285C676.547 660.429 622.728 638.363 583.593 613.315C489.884 553.334 423.218 610.852 369.647 657.07C341.873 681.038 315.63 703.679 293.602 701.4C282.03 700.206 270.719 692.188 259.011 676.89C172.537 563.902 198.841 398.004 317.647 307.077C436.445 216.157 603.462 234.099 689.936 347.088L689.935 347.096Z" fill="white"/>
<path d="M362.655 467.397C340.647 438.641 299.346 433.148 270.591 455.155C241.835 477.163 236.345 518.461 258.356 547.221C280.358 575.969 321.662 581.466 350.417 559.458C379.17 537.453 384.657 496.145 362.655 467.397ZM278.281 531.971C264.685 514.206 268.069 488.682 285.84 475.081C303.612 461.48 329.128 464.875 342.73 482.646C356.331 500.418 352.939 525.931 335.168 539.533C317.396 553.134 291.877 549.736 278.281 531.971Z" fill="white"/>
<path d="M345.852 413.35C367.86 442.105 409.161 447.599 437.916 425.591C466.665 403.589 472.162 362.285 450.151 333.526C428.149 304.777 386.845 299.28 358.09 321.288C329.334 343.296 323.844 384.594 345.852 413.35ZM430.222 348.778C443.818 366.543 440.435 392.067 422.663 405.668C404.891 419.27 379.375 415.874 365.774 398.103C352.173 380.331 355.564 354.818 373.336 341.216C391.11 327.613 416.621 331.006 430.222 348.778V348.778Z" fill="white"/>
<path d="M500.591 395.29C522.594 424.039 563.897 429.536 592.653 407.528C621.408 385.52 626.898 344.222 604.89 315.466C582.883 286.711 541.585 281.221 512.829 303.229C484.073 325.236 478.584 366.535 500.591 395.29ZM584.965 330.716C598.561 348.48 595.175 374.001 577.403 387.602C559.632 401.204 534.118 397.812 520.517 380.041C506.915 362.269 510.307 336.755 528.079 323.154C545.853 309.556 571.367 312.948 584.965 330.716Z" fill="white"/>
<path d="M576.943 540.488C598.951 569.244 640.25 574.727 669.002 552.722C697.757 530.715 703.247 489.417 681.239 460.661C659.232 431.905 617.933 426.416 589.178 448.423C560.426 470.428 554.935 511.733 576.943 540.488ZM661.313 475.917C674.909 493.681 671.523 519.202 653.751 532.803C635.98 546.405 610.466 543.013 596.865 525.242C583.263 507.47 586.655 481.956 604.426 468.355C622.201 454.757 647.712 458.145 661.313 475.917Z" fill="white"/>
</svg>
