<svg width="934" height="934" viewBox="0 0 934 934" fill="none" xmlns="http://www.w3.org/2000/svg">
<path d="M663.147 294.314V293.175C662.936 292.337 662.613 291.525 662.199 290.77L661.439 290.073V289.755L660.68 288.678L659.921 287.729L659.1 286.97L658.09 286.149L656.818 285.518L655.618 284.887L654.607 284.507L653.341 284.128H280.72L279.453 284.507L278.442 284.887L277.242 285.518L276.293 286.087L275.282 286.908L274.461 287.667L273.702 288.616L272.943 289.693V290.011L272.625 290.708H272.621C272.202 291.463 271.884 292.271 271.672 293.109V294.248C271.645 294.711 271.645 295.179 271.672 295.643L270.847 296.402V511.53V512.289C270.824 512.752 270.824 513.22 270.847 513.683V514.822C270.957 515.228 271.08 515.63 271.226 516.023C271.398 516.433 271.588 516.835 271.795 517.223L272.113 517.921C272.63 518.772 273.248 519.558 273.949 520.264H274.329C274.934 520.811 275.591 521.297 276.289 521.716L277.048 522.158V522.162C277.701 522.493 278.376 522.767 279.074 522.983H279.833C280.989 523.57 282.225 523.976 283.505 524.183H650.487C651.494 524.179 652.491 524.051 653.462 523.804H654.221C654.919 523.592 655.598 523.314 656.247 522.983L657.006 522.542C657.704 522.118 658.361 521.632 658.966 521.085L659.346 520.767C660.047 520.061 660.665 519.275 661.182 518.428L661.499 517.731C661.711 517.342 661.901 516.941 662.069 516.53C662.214 516.133 662.342 515.736 662.448 515.325V514.187C662.475 513.723 662.475 513.26 662.448 512.796L663.146 511.53V296.402V295.643C663.168 295.197 663.168 294.756 663.146 294.314H663.147ZM296.165 318.483L441.692 403.965L296.165 489.447V318.483ZM330.14 309.056H603.863L467.002 389.286L330.14 309.056ZM467.002 418.644L603.863 498.874H330.14L467.002 418.644ZM492.308 403.965L637.836 318.484V489.32L492.308 403.965Z" fill="white"/>
<path d="M738 267.932C738 247.793 730.003 228.479 715.76 214.24C701.521 200.002 682.208 192 662.073 192H271.927C251.793 192 232.479 200.002 218.24 214.24C203.998 228.479 196 247.792 196 267.932V666.551V666.547C196 686.686 203.997 706 218.24 720.238C232.479 734.477 251.792 742.479 271.927 742.479H662.073C682.207 742.479 701.521 734.477 715.76 720.238C730.002 706 738 686.687 738 666.547V267.932ZM712.693 666.551V666.547C712.693 679.973 707.357 692.847 697.868 702.341C688.375 711.835 675.5 717.166 662.074 717.166H271.929C258.502 717.166 245.629 711.835 236.134 702.341C226.645 692.848 221.309 679.973 221.309 666.547V267.928V267.932C221.309 254.506 226.645 241.632 236.134 232.138C245.628 222.644 258.502 217.313 271.929 217.313H662.074C675.5 217.313 688.374 222.644 697.868 232.138C707.357 241.631 712.693 254.506 712.693 267.932V666.551Z" fill="white"/>
<path d="M650.491 574.805H283.508C276.517 574.805 270.85 580.472 270.85 587.459C270.85 594.45 276.517 600.117 283.508 600.117H650.491C657.482 600.117 663.149 594.45 663.149 587.459C663.149 580.472 657.482 574.805 650.491 574.805Z" fill="white"/>
<path d="M650.491 638.078H283.508C276.517 638.078 270.85 643.745 270.85 650.731C270.85 657.722 276.517 663.389 283.508 663.389H650.491C657.482 663.389 663.149 657.722 663.149 650.731C663.149 643.745 657.482 638.078 650.491 638.078Z" fill="white"/>
</svg>
