<svg width="934" height="934" viewBox="0 0 934 934" fill="none" xmlns="http://www.w3.org/2000/svg">
<path d="M810.867 631.666H704.84V497.266C704.84 492.786 703.346 489.797 700.361 486.813C697.377 483.828 694.387 482.333 689.908 482.333H565.96L482.335 398.708L482.33 376.307C549.527 368.838 601.799 312.093 601.799 243.4C601.799 168.733 542.064 109 467.399 109C392.734 109 332.999 168.735 332.999 243.4C332.999 312.093 385.264 370.332 452.468 376.307V400.203L368.843 483.828H244.895C240.416 483.828 237.426 485.323 234.442 488.307C231.458 491.292 229.963 494.281 229.963 498.76V633.16H123.932C114.974 633.16 109 639.134 109 648.092V809.372C109 818.331 114.974 824.304 123.932 824.304H364.359C373.317 824.304 379.291 818.33 379.291 809.372L379.296 646.599C379.296 637.641 373.322 631.667 364.364 631.667H259.833V513.694H368.849L456.953 601.798C459.938 604.782 462.927 606.277 467.406 606.277C471.885 606.277 474.875 604.782 477.859 601.798L565.963 513.694H674.979V631.667H568.953C559.994 631.667 554.021 637.641 554.021 646.599L554.015 809.372C554.015 818.331 559.99 824.304 568.948 824.304H810.867C819.826 824.304 825.8 818.33 825.8 809.372V646.599C825.8 637.641 819.825 631.667 810.867 631.667L810.867 631.666ZM349.427 661.53V794.436H138.867V661.53H349.427ZM362.87 241.903C362.87 183.663 409.162 137.372 467.4 137.372C525.639 137.372 571.931 183.664 571.931 241.903C571.931 300.142 525.639 346.434 467.4 346.434C409.162 346.434 362.87 300.142 362.87 241.903V241.903ZM468.896 568.943L397.214 497.26L468.896 425.578L540.579 497.26L468.896 568.943ZM795.936 794.436H585.376V661.53H795.936V794.436Z" fill="white"/>
<path d="M416.627 228.466H521.158C530.116 228.466 536.09 222.492 536.09 213.534C536.09 204.576 530.116 198.602 521.158 198.602H416.627C407.669 198.602 401.695 204.576 401.695 213.534C401.69 222.492 407.664 228.466 416.627 228.466V228.466Z" fill="white"/>
<path d="M536.094 270.279C536.094 261.321 530.12 255.347 521.162 255.347H416.631C407.673 255.347 401.699 261.321 401.699 270.279C401.699 279.237 407.673 285.211 416.631 285.211H521.162C528.631 285.211 536.094 277.742 536.094 270.279V270.279Z" fill="white"/>
</svg>
