<svg width="934" height="934" viewBox="0 0 934 934" fill="none" xmlns="http://www.w3.org/2000/svg">
<path d="M157.618 512.971H101.641C94.1646 512.971 88.1084 519.02 88.1084 526.503V671.729C88.1084 679.205 94.1581 685.261 101.641 685.261H157.625C165.101 685.261 171.157 679.211 171.157 671.729V526.503C171.151 519.02 165.101 512.971 157.619 512.971H157.618ZM144.093 658.19H115.165V540.028H144.086L144.093 658.19Z" fill="white"/>
<path d="M107.99 498.867H151.29C158.766 498.867 164.822 492.817 164.822 485.335C164.822 477.859 158.772 471.803 151.29 471.803H107.99C100.514 471.803 94.458 477.852 94.458 485.335C94.458 492.811 100.508 498.867 107.99 498.867Z" fill="white"/>
<path d="M139.13 713.023C133.959 707.904 125.109 707.761 120.05 713.023C114.156 719.561 115.511 727.695 120.05 732.233C124.777 736.961 133.497 737.807 139.13 732.233C144.795 726.541 144.209 718.108 139.13 713.023Z" fill="white"/>
<path d="M749.672 498.867H792.971C800.447 498.867 806.503 492.817 806.503 485.335C806.503 477.859 800.454 471.803 792.971 471.803H749.672C742.196 471.803 736.14 477.852 736.14 485.335C736.146 492.811 742.196 498.867 749.672 498.867Z" fill="white"/>
<path d="M780.846 713.023C776.183 708.36 768.16 707.898 763.803 711.395C757.714 714.436 754.842 725.5 761.771 732.097C767.085 737.697 776.15 737.307 780.851 732.097C786.536 726.412 785.917 718.096 780.844 713.024L780.846 713.023Z" fill="white"/>
<path d="M860 431.9H778.976V203.891C778.976 183.541 762.396 167 742.02 167H156.668C136.331 167 119.791 183.541 119.791 203.891V431.9H73.9187C51.908 431.9 34 449.801 34 471.819V726.435C34 748.445 51.9013 766.353 73.9187 766.353H185.354C207.365 766.353 225.286 748.452 225.286 726.435V667.878H369.177V697.606H349.902C342.426 697.606 336.37 703.655 336.37 711.138C336.37 718.614 342.419 724.67 349.902 724.67H548.853C556.329 724.67 562.385 718.62 562.385 711.138C562.385 703.662 556.336 697.606 548.853 697.606H529.578V667.878H642.732V726.448C642.732 748.459 660.634 766.38 682.651 766.38H860.014C882.024 766.38 899.932 748.465 899.932 726.448L899.926 471.832C899.926 449.821 882.025 431.907 860.007 431.907L860 431.9ZM146.849 203.891C146.849 198.473 151.251 194.058 156.669 194.058H742.021C747.478 194.058 751.919 198.473 751.919 203.891V431.9H682.643C660.632 431.9 642.724 449.815 642.724 471.832V568.752L225.283 568.746V471.826C225.283 450.12 207.577 431.88 185.338 431.88H146.838L146.849 203.891ZM198.216 726.426C198.216 733.525 192.44 739.281 185.348 739.281H73.9123C66.8142 739.281 61.0575 733.518 61.0575 726.426V471.81C61.0575 464.712 66.8207 458.956 73.9123 458.956C77.5656 458.956 191.429 458.969 185.38 458.969C192.373 458.969 198.221 464.699 198.221 471.811L198.216 726.426ZM502.511 697.597H396.227V667.87H502.511V697.597ZM225.29 640.806V595.814H642.731V640.806C331.567 640.793 399.101 640.806 225.29 640.806ZM872.857 726.44C872.857 733.538 867.094 739.308 860.002 739.308H682.64C675.541 739.308 669.785 733.532 669.785 726.44V582.287V471.842C669.785 464.744 675.548 458.974 682.64 458.974H860.002C867.1 458.974 872.857 464.75 872.857 471.842V726.44Z" fill="white"/>
<path d="M832.259 512.971H710.372C702.896 512.971 696.84 519.02 696.84 526.503V671.742C696.84 679.218 702.89 685.274 710.372 685.274L832.259 685.268C839.734 685.268 845.791 679.218 845.791 671.736V526.496C845.791 519.02 839.741 512.971 832.259 512.971V512.971ZM818.733 658.203H723.903V540.028H818.733V658.203Z" fill="white"/>
</svg>
