<svg width="934" height="934" viewBox="0 0 934 934" fill="none" xmlns="http://www.w3.org/2000/svg">
<path d="M683.779 779.63H250.315C237.506 779.617 225.226 774.52 216.166 765.459C207.111 756.404 202.013 744.119 202 731.311V202.315C202.013 189.506 207.11 177.221 216.166 168.166C225.226 159.111 237.507 154.013 250.315 154H683.779C696.587 154.013 708.868 159.11 717.927 168.166C726.983 177.222 732.08 189.507 732.093 202.315V731.311C732.08 744.12 726.983 756.404 717.927 765.459C708.872 774.519 696.586 779.617 683.779 779.63ZM250.315 180.339C244.489 180.348 238.907 182.665 234.788 186.785C230.668 190.9 228.351 196.486 228.346 202.312V731.308C228.351 737.134 230.668 742.72 234.788 746.839C238.903 750.959 244.489 753.276 250.315 753.285H683.779C689.605 753.276 695.191 750.959 699.306 746.839C703.425 742.72 705.743 737.134 705.751 731.308V202.312C705.743 196.486 703.425 190.9 699.306 186.785C695.186 182.665 689.604 180.348 683.779 180.339H250.315ZM440.575 679.495H293.405C289.91 679.495 286.562 678.107 284.092 675.637C281.622 673.167 280.234 669.816 280.234 666.324V519.155C280.234 515.664 281.622 512.312 284.092 509.842C286.562 507.372 289.91 505.984 293.405 505.984H388.271C395.546 505.984 401.442 511.88 401.442 519.155C401.442 526.43 395.546 532.326 388.271 532.326H306.576V653.151H427.402V613.394C427.402 606.12 433.297 600.224 440.572 600.224C447.847 600.224 453.747 606.12 453.747 613.394V666.327C453.747 669.818 452.36 673.169 449.89 675.639C447.42 678.109 444.068 679.497 440.572 679.497L440.575 679.495ZM607.06 638.843H515.651C508.376 638.843 502.48 632.943 502.48 625.668C502.48 618.398 508.376 612.497 515.651 612.497H607.06C614.335 612.497 620.231 618.398 620.231 625.668C620.231 632.943 614.335 638.843 607.06 638.843ZM379.452 627.135C375.743 627.139 372.203 625.573 369.707 622.828L330.47 579.653C325.578 574.268 325.975 565.942 331.356 561.05C336.737 556.153 345.067 556.55 349.959 561.931L378.64 593.492L454.344 495.698C456.483 492.931 459.629 491.128 463.099 490.683C466.568 490.238 470.068 491.189 472.835 493.332C475.597 495.471 477.4 498.626 477.836 502.091C478.277 505.56 477.317 509.065 475.174 511.823L389.865 622.029C387.487 625.106 383.865 626.974 379.976 627.127L379.452 627.135ZM657.658 572.951L515.651 572.955C508.376 572.955 502.48 567.055 502.48 559.784C502.48 552.509 508.376 546.609 515.651 546.609H657.658C664.933 546.609 670.829 552.509 670.829 559.784C670.829 567.055 664.933 572.955 657.658 572.955V572.951ZM440.575 440.674H293.405C289.91 440.674 286.562 439.286 284.092 436.816C281.622 434.346 280.234 430.998 280.234 427.503V280.333C280.234 276.838 281.622 273.486 284.092 271.016C286.562 268.546 289.91 267.158 293.405 267.158H388.271C395.546 267.158 401.442 273.059 401.442 280.334C401.442 287.604 395.546 293.504 388.271 293.504H306.576V414.33H427.402V374.573C427.402 367.298 433.297 361.402 440.572 361.402C447.847 361.402 453.747 367.298 453.747 374.573V427.501C453.747 430.996 452.36 434.344 449.89 436.814C447.42 439.284 444.068 440.671 440.572 440.671L440.575 440.674ZM607.06 400.017H515.655C508.38 400.017 502.484 394.122 502.484 386.847C502.484 379.572 508.38 373.676 515.655 373.676H607.065C614.34 373.676 620.235 379.572 620.235 386.847C620.235 394.122 614.34 400.017 607.065 400.017H607.06ZM379.452 388.312C375.743 388.312 372.203 386.746 369.707 384.001L330.47 340.826C325.578 335.445 325.975 327.115 331.356 322.223C336.737 317.33 345.067 317.723 349.959 323.109L378.64 354.67L454.344 256.875C458.8 251.123 467.07 250.072 472.822 254.523C478.573 258.974 479.625 267.249 475.174 273L389.865 383.202C387.487 386.283 383.865 388.147 379.976 388.304L379.452 388.312ZM657.658 334.132H515.651C508.376 334.132 502.48 328.237 502.48 320.962C502.48 313.687 508.376 307.791 515.651 307.791H657.658C664.933 307.791 670.829 313.687 670.829 320.962C670.829 328.237 664.933 334.132 657.658 334.132Z" fill="white"/>
</svg>
