<svg width="934" height="934" viewBox="0 0 934 934" fill="none" xmlns="http://www.w3.org/2000/svg">
<path d="M210.376 420.583C187.812 424.146 170 443.147 170 466.9C170 493.026 191.375 514.406 217.506 514.406C243.632 514.406 265.012 493.031 265.012 466.9C265.012 446.709 251.946 428.897 234.134 422.956C251.946 327.949 325.579 253.127 419.402 234.126V253.127C419.402 260.252 424.153 265.004 431.279 265.004H502.538C509.663 265.004 514.415 260.253 514.415 253.127V234.126C608.238 253.127 681.873 326.76 699.683 421.765C681.871 428.89 668.805 445.518 668.805 465.709C668.805 491.835 690.18 513.215 716.311 513.215C742.437 513.215 763.817 491.84 763.817 465.709C763.817 441.956 746.004 422.954 723.436 419.392C707.997 335.072 652.177 265.002 576.17 229.382H671.177C675.929 249.573 694.93 265.012 717.494 265.012C743.62 265.012 765 243.636 765 217.506C765 191.38 743.625 170 717.494 170C694.93 170 677.113 185.439 671.177 205.63H514.416V181.877C514.416 174.752 509.664 170 502.539 170H431.28C424.155 170 419.403 174.751 419.403 181.877V205.63H263.833C257.892 185.439 240.08 170 217.516 170C191.385 170 170.01 191.375 170.01 217.506C170.01 243.632 191.385 265.012 217.516 265.012C240.08 265.012 257.897 249.573 263.833 229.382H358.84C282.834 263.822 225.822 335.077 210.383 420.583H210.376ZM241.254 466.9C241.254 479.966 230.567 490.653 217.501 490.653C204.436 490.653 193.749 479.965 193.749 466.9C193.749 453.835 204.436 443.147 217.501 443.147C230.567 443.147 241.254 453.835 241.254 466.9ZM740.056 466.9C740.056 479.966 729.368 490.653 716.303 490.653C703.238 490.653 692.55 479.965 692.55 466.9C692.55 453.835 703.238 443.147 716.303 443.147C729.368 443.147 740.056 453.835 740.056 466.9ZM716.303 193.751C729.369 193.751 740.056 204.438 740.056 217.504C740.056 230.569 729.368 241.257 716.303 241.257C703.238 241.257 692.55 230.569 692.55 217.504C692.554 204.438 703.242 193.751 716.303 193.751ZM443.154 193.751H490.66V241.257H443.154V193.751ZM217.512 241.252C204.447 241.252 193.76 230.565 193.76 217.504C193.76 204.438 204.447 193.751 217.512 193.751C230.578 193.751 241.265 204.438 241.265 217.504C241.261 230.565 230.574 241.252 217.512 241.252V241.252Z" fill="white"/>
<path d="M386.149 763.803H547.664C554.789 763.803 559.541 759.052 559.541 751.926V690.17L626.049 565.467C628.422 560.716 627.238 554.78 623.675 551.217C528.668 456.21 503.725 291.124 503.725 289.945C502.536 284.008 497.789 279.257 491.848 279.257H441.969C436.033 279.257 431.281 284.008 430.092 289.945C430.092 291.133 405.15 456.212 310.142 551.217C306.579 554.779 305.39 560.72 307.768 565.467L374.276 690.17L374.272 751.926C374.272 759.051 380.208 763.803 386.149 763.803H386.149ZM535.787 740.05H398.026V698.485H535.787V740.05ZM466.905 482.34C482.344 482.34 494.222 494.217 494.222 509.656C494.222 525.095 482.344 536.972 466.905 536.972C451.466 536.972 439.589 525.095 439.589 509.656C439.589 494.217 451.466 482.34 466.905 482.34ZM452.655 303.005H455.029V460.957C432.465 466.893 415.837 487.083 415.837 510.836C415.837 539.341 438.401 561.905 466.906 561.905C495.411 561.905 517.975 539.341 517.975 510.836C517.975 487.083 501.347 466.892 478.783 460.957V303.005H481.156C488.281 341.008 516.786 474.025 599.916 561.906L539.348 675.912L393.273 675.917L332.706 561.899C415.837 474.017 445.532 341.011 452.656 302.998L452.655 303.005Z" fill="white"/>
</svg>
