<svg width="934" height="934" viewBox="0 0 934 934" fill="none" xmlns="http://www.w3.org/2000/svg">
<path d="M400.719 247.86L400.719 247.86L539.422 672.448C543.257 684.219 536.835 696.764 525.145 700.601C522.843 701.337 520.501 701.695 518.182 701.695C508.762 701.695 500.068 695.76 496.96 686.344L464.864 588.018L464.754 587.681H464.399H294.563H294.208L294.098 588.018L262.001 686.346L262.001 686.346C258.188 698.075 245.584 704.437 233.87 700.646C222.158 696.803 215.78 684.152 219.593 672.486L219.593 672.486L358.262 247.862C361.299 238.669 369.844 232.489 379.502 232.489C389.165 232.489 397.732 238.67 400.719 247.86ZM309.027 542.482L308.818 543.122H309.492H449.558H450.232L450.023 542.482L379.989 328.074L379.525 326.652L379.06 328.074L309.027 542.482Z" fill="white" stroke="white" stroke-width="0.977027"/>
<path d="M696.705 417.407C685.53 406.236 669.615 400.584 649.419 400.584C621.516 400.584 606.243 414.033 592.789 425.91L590.874 427.597C581.412 435.871 580.477 450.301 588.797 459.763C597.118 469.224 611.498 470.136 620.982 461.839L622.947 460.106C635.228 449.279 639.224 446.176 649.415 446.176C656.876 446.176 662.204 447.431 664.421 449.618C668.951 454.156 670.069 468.082 670.321 483.177C581.934 494.253 548.222 568.797 548.222 617.206C548.222 702.219 630.018 702.219 656.916 702.219H693.204C705.795 702.219 716 692.078 716 679.423V498.458C715.962 466.792 716.099 436.859 696.704 417.414L696.705 417.407ZM656.872 656.622C603.231 656.622 593.793 643.917 593.793 617.205C593.793 594.734 608.22 539.898 670.321 529.139V656.621L656.872 656.622Z" fill="white"/>
</svg>
