<svg width="934" height="934" viewBox="0 0 934 934" fill="none" xmlns="http://www.w3.org/2000/svg">
<path d="M410.406 162.001H223.634C220.882 162.001 218.242 163.094 216.296 165.04C214.351 166.985 213.257 169.626 213.257 172.377V375.336C206.99 371.563 199.819 369.555 192.505 369.525C181.497 369.525 170.94 373.898 163.157 381.682C155.373 389.465 151 400.022 151 411.03C151 422.038 155.373 432.595 163.157 440.377C170.94 448.162 181.497 452.535 192.505 452.535C203.513 452.535 214.07 448.162 221.852 440.377C229.637 432.595 234.01 422.038 234.01 411.03V234.634H400.029V302.702C393.762 298.929 386.591 296.921 379.277 296.891C368.269 296.891 357.712 301.264 349.929 309.048C342.145 316.83 337.772 327.388 337.772 338.396C337.772 349.404 342.145 359.961 349.929 367.743C357.712 375.528 368.269 379.901 379.277 379.901C390.285 379.901 400.842 375.528 408.624 367.743C416.409 359.961 420.782 349.404 420.782 338.396V172.376C420.782 169.625 419.689 166.984 417.743 165.039C415.798 163.093 413.157 162 410.406 162V162.001ZM192.505 431.783C187.002 431.783 181.723 429.596 177.83 425.705C173.939 421.812 171.752 416.533 171.752 411.03C171.752 405.527 173.939 400.249 177.83 396.355C181.723 392.464 187.002 390.278 192.505 390.278C198.008 390.278 203.287 392.464 207.18 396.355C211.071 400.249 213.257 405.527 213.257 411.03C213.257 416.533 211.071 421.812 207.18 425.705C203.286 429.596 198.008 431.783 192.505 431.783ZM234.01 213.882V182.753H400.029V213.882H234.01ZM379.277 359.149C373.774 359.149 368.495 356.963 364.602 353.072C360.711 349.178 358.525 343.9 358.525 338.397C358.525 332.894 360.711 327.615 364.602 323.722C368.495 319.831 373.774 317.644 379.277 317.644C384.78 317.644 390.059 319.831 393.952 323.722C397.843 327.615 400.029 332.894 400.029 338.397C400.029 343.9 397.843 349.179 393.952 353.072C390.059 356.963 384.78 359.149 379.277 359.149Z" fill="white"/>
<path d="M656.231 402.443C654.402 402.443 652.573 401.961 650.945 401.008C645.966 398.095 529.073 328.703 529.466 246.727C529.71 195.146 562.879 166.792 586.348 163.127C622.779 157.44 644.62 174.192 656.232 192.89C667.856 174.199 689.605 157.451 726.117 163.123C749.586 166.788 782.754 195.142 782.999 246.723C783.386 328.699 666.501 398.088 661.52 401.004C659.892 401.961 658.063 402.442 656.234 402.442L656.231 402.443ZM600.064 182.96C596.793 182.96 593.307 183.23 589.576 183.814C573.886 186.256 550.581 207.976 550.398 246.829C550.103 307.942 634.079 365.542 656.234 379.663C678.373 365.52 762.358 307.842 762.069 246.829C761.886 207.977 738.581 186.257 722.892 183.814C676.253 176.568 667.4 218.366 666.55 223.166C665.67 228.174 661.315 231.85 656.237 231.85H656.197C651.097 231.825 646.754 228.156 645.914 223.126C645.147 218.752 637.685 182.96 600.07 182.96L600.064 182.96Z" fill="white"/>
<path d="M771.36 756.472L708.719 693.831C724.539 674.385 732.292 649.611 730.385 624.614C728.475 599.619 717.049 576.31 698.46 559.49C679.872 542.672 655.539 533.627 630.478 534.219C605.417 534.813 581.538 544.998 563.766 562.678C546.087 580.45 535.902 604.329 535.308 629.39C534.716 654.451 543.76 678.784 560.579 697.371C577.399 715.961 600.708 727.387 625.702 729.296C650.697 731.204 675.472 723.45 694.92 707.631L757.56 770.271C760.081 772.43 763.522 773.164 766.704 772.224C769.884 771.283 772.373 768.794 773.314 765.613C774.254 762.432 773.518 758.993 771.36 756.472ZM577.566 687.276C562.876 672.595 554.62 652.677 554.616 631.909C554.611 611.139 562.858 591.219 577.542 576.531C592.228 561.842 612.146 553.591 632.916 553.591C653.684 553.591 673.604 561.842 688.288 576.531C702.974 591.219 711.221 611.139 711.216 631.909C711.212 652.677 702.954 672.595 688.264 687.276C673.646 702.069 653.713 710.395 632.916 710.395C612.117 710.395 592.184 702.069 577.566 687.276Z" fill="white"/>
<path d="M388.547 771.501C387.072 771.501 385.591 771.148 384.238 770.437L308.014 730.369L231.789 770.437C228.677 772.078 224.891 771.806 222.035 769.73C219.181 767.656 217.756 764.144 218.352 760.667L232.908 675.797L171.244 615.682C168.718 613.225 167.811 609.545 168.902 606.186C169.994 602.834 172.894 600.389 176.38 599.884L261.602 587.5L299.712 510.278C301.277 507.116 304.496 505.114 308.019 505.114C311.543 505.114 314.765 507.116 316.327 510.278L354.437 587.5L439.659 599.884C443.145 600.389 446.048 602.834 447.137 606.186C448.228 609.538 447.314 613.218 444.795 615.682L383.124 675.797L397.681 760.667C398.279 764.144 396.848 767.655 393.998 769.73C392.382 770.902 390.471 771.501 388.553 771.501L388.547 771.501ZM308.012 710.638C309.494 710.638 310.972 710.99 312.322 711.701L376.244 745.303L364.035 674.131C363.518 671.121 364.519 668.059 366.698 665.932L418.415 615.525L346.946 605.134C343.928 604.697 341.324 602.804 339.973 600.069L308.012 535.308L276.051 600.069C274.701 602.804 272.094 604.697 269.078 605.134L197.61 615.525L249.326 665.932C251.509 668.059 252.504 671.121 251.989 674.131L239.781 745.303L303.702 711.701C305.053 710.99 306.531 710.638 308.012 710.638H308.012Z" fill="white"/>
</svg>
