<svg width="934" height="934" viewBox="0 0 934 934" fill="none" xmlns="http://www.w3.org/2000/svg">
<path d="M494.357 270.235C486.854 270.235 480.776 276.313 480.776 283.817C480.776 295.072 471.658 304.189 460.403 304.189C449.148 304.189 440.031 295.072 440.031 283.817C440.031 276.313 433.952 270.235 426.449 270.235C418.946 270.235 412.867 276.313 412.867 283.817C412.867 300.801 421.924 316.49 436.635 324.987C451.346 333.475 469.46 333.475 484.171 324.987C498.882 316.491 507.939 300.802 507.939 283.817C507.939 280.217 506.507 276.761 503.96 274.214C501.413 271.668 497.957 270.235 494.357 270.235Z" fill="white"/>
<path d="M229.514 636.94C216.91 636.94 204.815 641.95 195.901 650.863C186.988 659.776 181.979 671.872 181.979 684.476C181.979 691.979 188.057 698.058 195.56 698.058C203.063 698.058 209.142 691.979 209.142 684.476C209.142 673.221 218.259 664.103 229.514 664.103C240.769 664.103 249.887 673.221 249.887 684.476C249.887 691.979 255.965 698.058 263.469 698.058C270.972 698.058 277.05 691.979 277.05 684.476C277.05 671.872 272.041 659.777 263.128 650.863C254.214 641.95 242.119 636.94 229.515 636.94H229.514Z" fill="white"/>
<path d="M718.455 514.706H664.129C656.625 514.706 650.547 520.784 650.547 528.287C650.547 535.791 656.625 541.869 664.129 541.869H718.455C725.959 541.869 732.037 535.791 732.037 528.287C732.037 520.784 725.959 514.706 718.455 514.706Z" fill="white"/>
<path d="M838.791 501.124C831.591 502.208 810.271 503.572 785.82 504.247C783.311 480.335 771.837 458.265 753.699 442.477C735.57 426.69 712.128 418.36 688.102 419.156C664.068 419.959 641.241 429.834 624.202 446.796C605.421 421.065 588.232 394.212 572.725 366.391C563.759 351.043 555.203 336.515 546.647 322.933C560.486 292.927 557.75 257.896 539.431 230.401C521.113 202.904 489.835 186.889 456.812 188.11C423.797 189.33 393.777 207.596 377.536 236.365C361.286 265.135 361.142 300.279 377.149 329.179C362.074 358.108 347.409 393.009 331.788 429.957C312.772 475.318 292.945 521.907 270.125 564.144C247.526 553.495 221.643 552.169 198.071 560.453C174.506 568.737 155.143 585.963 144.177 608.414C133.21 630.855 131.52 656.722 139.47 680.401C128.602 682.167 118.151 683.387 108.502 684.342L91.6611 686.244C84.1654 686.767 78.504 693.277 79.0344 700.773C79.5574 708.276 86.0602 713.93 93.5635 713.407H95.4659L111.359 711.641C123.175 710.421 137.576 708.792 152.104 705.798C167.747 728.043 192.174 742.519 219.194 745.565C246.221 748.612 273.255 739.942 293.468 721.753C313.674 703.555 325.125 677.573 324.921 650.381C324.718 623.188 312.878 597.381 292.399 579.494C316.303 535.489 336.813 487.408 356.367 440.691C369.949 408.912 382.446 378.755 395.211 352.956V352.948C413.696 370.092 438.23 379.186 463.414 378.247C488.606 377.307 512.389 366.401 529.533 347.923C535.779 358.245 542.168 368.978 548.822 380.383C566.019 411.534 585.444 441.402 606.954 469.748C593.774 494.283 592.015 523.355 602.133 549.298C612.259 575.234 633.245 595.439 659.553 604.556C685.861 613.682 714.842 610.817 738.852 596.72C762.863 582.615 779.483 558.695 784.328 531.275C810.808 530.457 833.903 528.964 842.186 527.88C849.689 526.834 854.919 519.899 853.865 512.396C852.819 504.9 845.884 499.671 838.381 500.716L838.791 501.124ZM297.425 650.523C297.425 668.53 290.27 685.804 277.537 698.544C264.797 711.276 247.524 718.431 229.516 718.431C211.509 718.431 194.235 711.276 181.495 698.544C168.762 685.803 161.608 668.53 161.608 650.523C161.608 632.515 168.762 615.241 181.495 602.502C194.236 589.769 211.509 582.614 229.516 582.614C247.524 582.614 264.798 589.769 277.537 602.502C290.27 615.242 297.425 632.515 297.425 650.523ZM460.405 351.726C442.397 351.726 425.124 344.571 412.384 331.838C399.651 319.098 392.496 301.825 392.496 283.817C392.496 265.81 399.651 248.536 412.384 235.796C425.124 223.063 442.397 215.909 460.405 215.909C478.412 215.909 495.686 223.063 508.426 235.796C521.159 248.537 528.313 265.81 528.313 283.817C528.313 301.825 521.159 319.098 508.426 331.838C495.685 344.571 478.412 351.726 460.405 351.726ZM691.294 582.614C673.286 582.614 656.012 575.46 643.273 562.727C630.54 549.986 623.385 532.713 623.385 514.706C623.385 496.698 630.54 479.424 643.273 466.685C656.013 453.952 673.286 446.797 691.294 446.797C709.301 446.797 726.575 453.952 739.314 466.685C752.047 479.425 759.202 496.698 759.202 514.706C759.202 532.713 752.047 549.987 739.314 562.727C726.574 575.46 709.301 582.614 691.294 582.614Z" fill="white"/>
<path d="M473.986 704.849C473.986 712.352 467.907 718.43 460.404 718.43C452.901 718.43 446.822 712.352 446.822 704.849C446.822 697.345 452.901 691.267 460.404 691.267C467.907 691.267 473.986 697.345 473.986 704.849Z" fill="white"/>
<path d="M473.986 772.758C473.986 780.261 467.907 786.339 460.404 786.339C452.901 786.339 446.822 780.261 446.822 772.758C446.822 765.254 452.901 759.176 460.404 759.176C467.907 759.176 473.986 765.254 473.986 772.758Z" fill="white"/>
<path d="M473.986 569.032C473.986 576.535 467.907 582.614 460.404 582.614C452.901 582.614 446.822 576.535 446.822 569.032C446.822 561.529 452.901 555.45 460.404 555.45C467.907 555.45 473.986 561.529 473.986 569.032Z" fill="white"/>
<path d="M473.986 433.215C473.986 440.719 467.907 446.797 460.404 446.797C452.901 446.797 446.822 440.719 446.822 433.215C446.822 425.712 452.901 419.634 460.404 419.634C467.907 419.634 473.986 425.712 473.986 433.215Z" fill="white"/>
<path d="M473.986 161.582C473.986 169.085 467.907 175.163 460.404 175.163C452.901 175.163 446.822 169.085 446.822 161.582C446.822 154.078 452.901 148 460.404 148C467.907 148 473.986 154.078 473.986 161.582Z" fill="white"/>
<path d="M473.986 501.124C473.986 508.627 467.907 514.705 460.404 514.705C452.901 514.705 446.822 508.627 446.822 501.124C446.822 493.62 452.901 487.542 460.404 487.542C467.907 487.542 473.986 493.62 473.986 501.124Z" fill="white"/>
<path d="M473.986 636.941C473.986 644.444 467.907 650.522 460.404 650.522C452.901 650.522 446.822 644.444 446.822 636.941C446.822 629.438 452.901 623.359 460.404 623.359C467.907 623.359 473.986 629.438 473.986 636.941Z" fill="white"/>
<path d="M704.874 704.849C704.874 712.352 698.796 718.43 691.293 718.43C683.789 718.43 677.711 712.352 677.711 704.849C677.711 697.345 683.789 691.267 691.293 691.267C698.796 691.267 704.874 697.345 704.874 704.849Z" fill="white"/>
<path d="M704.874 772.758C704.874 780.261 698.796 786.339 691.293 786.339C683.789 786.339 677.711 780.261 677.711 772.758C677.711 765.254 683.789 759.176 691.293 759.176C698.796 759.176 704.874 765.254 704.874 772.758Z" fill="white"/>
<path d="M704.874 297.398C704.874 304.902 698.796 310.98 691.293 310.98C683.789 310.98 677.711 304.902 677.711 297.398C677.711 289.895 683.789 283.817 691.293 283.817C698.796 283.817 704.874 289.895 704.874 297.398Z" fill="white"/>
<path d="M704.874 161.582C704.874 169.085 698.796 175.163 691.293 175.163C683.789 175.163 677.711 169.085 677.711 161.582C677.711 154.078 683.789 148 691.293 148C698.796 148 704.874 154.078 704.874 161.582Z" fill="white"/>
<path d="M704.874 229.49C704.874 236.994 698.796 243.072 691.293 243.072C683.789 243.072 677.711 236.994 677.711 229.49C677.711 221.987 683.789 215.909 691.293 215.909C698.796 215.909 704.874 221.987 704.874 229.49Z" fill="white"/>
<path d="M704.874 365.307C704.874 372.81 698.796 378.889 691.293 378.889C683.789 378.889 677.711 372.81 677.711 365.307C677.711 357.804 683.789 351.725 691.293 351.725C698.796 351.725 704.874 357.804 704.874 365.307Z" fill="white"/>
<path d="M704.874 636.941C704.874 644.444 698.796 650.522 691.293 650.522C683.789 650.522 677.711 644.444 677.711 636.941C677.711 629.438 683.789 623.359 691.293 623.359C698.796 623.359 704.874 629.438 704.874 636.941Z" fill="white"/>
<path d="M243.097 772.758C243.097 780.261 237.019 786.339 229.515 786.339C222.012 786.339 215.934 780.261 215.934 772.758C215.934 765.254 222.012 759.176 229.515 759.176C237.019 759.176 243.097 765.254 243.097 772.758Z" fill="white"/>
<path d="M243.097 433.215C243.097 440.719 237.019 446.797 229.515 446.797C222.012 446.797 215.934 440.719 215.934 433.215C215.934 425.712 222.012 419.634 229.515 419.634C237.019 419.634 243.097 425.712 243.097 433.215Z" fill="white"/>
<path d="M243.097 297.398C243.097 304.902 237.019 310.98 229.515 310.98C222.012 310.98 215.934 304.902 215.934 297.398C215.934 289.895 222.012 283.817 229.515 283.817C237.019 283.817 243.097 289.895 243.097 297.398Z" fill="white"/>
<path d="M243.097 161.582C243.097 169.085 237.019 175.163 229.515 175.163C222.012 175.163 215.934 169.085 215.934 161.582C215.934 154.078 222.012 148 229.515 148C237.019 148 243.097 154.078 243.097 161.582Z" fill="white"/>
<path d="M243.097 229.49C243.097 236.994 237.019 243.072 229.515 243.072C222.012 243.072 215.934 236.994 215.934 229.49C215.934 221.987 222.012 215.909 229.515 215.909C237.019 215.909 243.097 221.987 243.097 229.49Z" fill="white"/>
<path d="M243.097 365.307C243.097 372.81 237.019 378.889 229.515 378.889C222.012 378.889 215.934 372.81 215.934 365.307C215.934 357.804 222.012 351.725 229.515 351.725C237.019 351.725 243.097 357.804 243.097 365.307Z" fill="white"/>
<path d="M243.097 501.124C243.097 508.627 237.019 514.705 229.515 514.705C222.012 514.705 215.934 508.627 215.934 501.124C215.934 493.62 222.012 487.542 229.515 487.542C237.019 487.542 243.097 493.62 243.097 501.124Z" fill="white"/>
</svg>
