<svg width="934" height="934" viewBox="0 0 934 934" fill="none" xmlns="http://www.w3.org/2000/svg">
<path d="M566.825 602.51C566.825 598.737 565.326 595.116 562.659 592.449C559.991 589.781 556.371 588.282 552.598 588.282H481.46V574.055C481.428 547.652 470.929 522.333 452.255 503.667C433.589 484.994 408.27 474.494 381.867 474.462H296.502C270.099 474.494 244.781 484.993 226.114 503.667C207.441 522.333 196.942 547.652 196.909 574.055V585.659C188.608 582.737 181.418 577.319 176.324 570.142C171.23 562.971 168.48 554.396 168.455 545.599V289.503C168.467 278.185 172.97 267.336 180.967 259.333C188.97 251.336 199.819 246.833 211.138 246.82H438.778C446.635 246.82 453.006 240.45 453.006 232.593C453.006 224.736 446.635 218.365 438.778 218.365H211.138C192.279 218.384 174.196 225.892 160.858 239.224C147.526 252.562 140.02 270.645 140 289.503V545.599C140.019 564.457 147.527 582.54 160.858 595.878C174.197 609.21 192.279 616.717 211.138 616.736H552.599C556.371 616.736 559.992 615.237 562.659 612.57C565.327 609.902 566.826 606.282 566.826 602.509L566.825 602.51ZM296.502 502.917H381.867C400.726 502.936 418.808 510.444 432.147 523.775C445.479 537.114 452.985 555.196 453.005 574.055V588.282H424.55V559.827C424.55 551.97 418.179 545.6 410.322 545.6C402.466 545.6 396.095 551.97 396.095 559.827V588.282H282.275V559.827C282.275 551.97 275.904 545.6 268.047 545.6C260.19 545.6 253.819 551.97 253.819 559.827V588.282H225.364V574.055C225.383 555.196 232.891 537.113 246.223 523.775C259.561 510.443 277.644 502.936 296.502 502.917Z" fill="white"/>
<path d="M666.42 417.552V360.642C666.42 352.785 660.049 346.414 652.192 346.414C644.336 346.414 637.965 352.785 637.965 360.642V417.552C637.965 425.409 644.336 431.78 652.192 431.78C660.049 431.78 666.42 425.409 666.42 417.552Z" fill="white"/>
<path d="M566.826 531.372C566.826 554.016 575.82 575.725 591.826 591.738C607.838 607.744 629.548 616.737 652.191 616.737C674.835 616.737 696.544 607.744 712.557 591.738C728.563 575.725 737.557 554.016 737.557 531.372C737.557 508.728 728.563 487.02 712.557 471.007C696.544 455.001 674.835 446.007 652.191 446.007C629.561 446.032 607.857 455.033 591.858 471.039C575.852 487.039 566.852 508.743 566.826 531.372ZM652.191 474.462C667.283 474.462 681.759 480.458 692.435 491.129C703.106 501.806 709.102 516.281 709.102 531.372C709.102 546.463 703.106 560.939 692.435 571.616C681.758 582.286 667.282 588.282 652.191 588.282C637.1 588.282 622.624 582.286 611.948 571.616C601.277 560.939 595.281 546.463 595.281 531.372C595.3 516.281 601.302 501.818 611.967 491.148C622.638 480.484 637.1 474.482 652.191 474.462Z" fill="white"/>
<path d="M694.874 645.192H609.509C583.106 645.224 557.787 655.723 539.121 674.397C520.448 693.064 509.949 718.382 509.916 744.785V787.468C509.916 795.325 516.287 801.695 524.144 801.695C532 801.695 538.371 795.325 538.371 787.468V744.785C538.39 725.927 545.898 707.844 559.229 694.506C572.568 681.174 590.65 673.667 609.509 673.647H694.874C713.732 673.667 731.815 681.174 745.153 694.506C758.485 707.844 765.992 725.927 766.012 744.785V787.468C766.012 795.325 772.382 801.695 780.239 801.695C788.096 801.695 794.467 795.325 794.467 787.468V744.785C794.435 718.382 783.936 693.064 765.262 674.397C746.596 655.724 721.277 645.225 694.874 645.192Z" fill="white"/>
<path d="M581.054 730.558C573.197 730.558 566.826 736.929 566.826 744.785V787.468C566.826 795.325 573.197 801.696 581.054 801.696C588.911 801.696 595.281 795.325 595.281 787.468V744.785C595.281 741.013 593.782 737.392 591.115 734.724C588.447 732.057 584.827 730.558 581.054 730.558Z" fill="white"/>
<path d="M723.327 730.558C715.47 730.558 709.1 736.929 709.1 744.785V787.468C709.1 795.325 715.47 801.696 723.327 801.696C731.184 801.696 737.555 795.325 737.555 787.468V744.785C737.555 741.013 736.056 737.392 733.388 734.724C730.72 732.057 727.1 730.558 723.327 730.558Z" fill="white"/>
<path d="M253.822 360.642C253.822 383.285 262.816 404.994 278.822 421.007C294.834 437.013 316.544 446.007 339.187 446.007C361.831 446.007 383.54 437.013 399.553 421.007C415.559 404.995 424.553 383.285 424.553 360.642C424.553 337.998 415.559 316.289 399.553 300.276C383.54 284.27 361.831 275.276 339.187 275.276C316.557 275.302 294.853 284.302 278.855 300.309C262.849 316.308 253.848 338.012 253.822 360.642ZM396.098 360.642C396.098 375.733 390.102 390.209 379.431 400.885C368.754 411.556 354.278 417.552 339.187 417.552C324.097 417.552 309.62 411.556 298.944 400.885C288.273 390.208 282.277 375.733 282.277 360.642C282.277 345.551 288.273 331.074 298.944 320.398C309.621 309.727 324.097 303.731 339.187 303.731C354.279 303.75 368.742 309.753 379.412 320.417C390.076 331.088 396.078 345.551 396.098 360.642Z" fill="white"/>
<path d="M509.916 332.186V360.642C509.916 366.028 512.958 370.957 517.779 373.37C522.6 375.777 528.367 375.257 532.68 372.024L585.798 332.186H680.646C691.964 332.174 702.813 327.671 710.816 319.674C718.813 311.671 723.316 300.822 723.329 289.503V175.683C723.316 164.365 718.813 153.516 710.816 145.513C702.813 137.516 691.965 133.013 680.646 133H509.916C498.597 133.013 487.748 137.516 479.745 145.513C471.748 153.516 467.245 164.364 467.232 175.683V289.503C467.245 300.822 471.748 311.671 479.745 319.674C487.748 327.671 498.597 332.174 509.916 332.186V332.186ZM495.688 175.684C495.701 167.833 502.065 161.469 509.916 161.456H680.646C688.496 161.469 694.861 167.833 694.874 175.684V289.504C694.861 297.354 688.496 303.719 680.646 303.731H581.053C577.973 303.731 574.981 304.729 572.517 306.577L538.371 332.186V317.959C538.371 314.186 536.872 310.566 534.204 307.898C531.536 305.23 527.916 303.731 524.143 303.731H509.916C502.065 303.719 495.701 297.354 495.688 289.504V175.684Z" fill="white"/>
<path d="M609.508 232.594C609.508 240.451 603.137 246.822 595.28 246.822C587.423 246.822 581.053 240.451 581.053 232.594C581.053 224.737 587.423 218.366 595.28 218.366C603.137 218.366 609.508 224.737 609.508 232.594Z" fill="white"/>
<path d="M666.42 232.594C666.42 240.451 660.049 246.822 652.192 246.822C644.336 246.822 637.965 240.451 637.965 232.594C637.965 224.737 644.336 218.366 652.192 218.366C660.049 218.366 666.42 224.737 666.42 232.594Z" fill="white"/>
<path d="M552.598 232.594C552.598 240.451 546.227 246.822 538.37 246.822C530.513 246.822 524.143 240.451 524.143 232.594C524.143 224.737 530.513 218.366 538.37 218.366C546.227 218.366 552.598 224.737 552.598 232.594Z" fill="white"/>
</svg>
