<svg width="934" height="934" viewBox="0 0 934 934" fill="none" xmlns="http://www.w3.org/2000/svg">
<path d="M114.142 427.441L136.553 436.156V531.405C115.387 537.007 99.2012 556.306 99.2012 579.34C99.2012 606.732 121.612 629.143 149.004 629.143C176.395 629.143 198.807 606.732 198.807 579.34C198.807 556.306 182.621 537.008 161.455 531.405V446.117L236.159 475.998V623.542C236.159 641.597 251.1 660.271 270.397 664.008C308.373 670.856 375.606 679.572 462.138 679.572C561.12 679.572 626.487 670.856 662.601 664.631C681.277 660.896 696.84 642.22 696.84 623.544V476L818.857 427.442C844.381 417.481 844.381 400.674 818.857 390.09L510.08 263.093C497.629 258.113 480.821 255 464.634 255C447.826 255 431.017 257.49 418.566 263.093L114.143 390.09C88.6188 400.673 88.6188 417.481 114.143 427.442L114.142 427.441ZM173.905 579.965C173.905 593.661 162.7 604.866 149.004 604.866C135.308 604.866 124.103 593.661 124.103 579.965C124.103 566.269 135.308 555.064 149.004 555.064C162.7 555.064 173.905 566.269 173.905 579.965ZM671.933 623.542C671.933 629.768 665.707 638.483 658.237 639.728C622.13 646.576 558.008 654.669 462.142 654.669C379.345 654.669 314.598 646.576 274.756 639.105C267.285 637.86 261.06 629.767 261.06 623.541V485.96L420.429 548.837C432.88 553.817 449.687 556.307 466.496 556.307C483.306 556.307 500.113 553.817 512.564 548.837L671.933 485.96V623.542ZM427.899 286.136C437.237 282.401 450.311 279.911 464.628 279.911C478.324 279.911 492.02 281.778 500.735 285.513L798.299 408.153L503.837 525.813C494.499 529.548 480.803 531.416 466.485 531.416C452.168 531.416 438.47 529.548 429.133 525.813L134.045 408.777L427.899 286.136Z" fill="white"/>
</svg>
