<svg width="934" height="934" viewBox="0 0 934 934" fill="none" xmlns="http://www.w3.org/2000/svg">
<path d="M749.367 166H185.627C171.534 166 160 177.529 160 191.627V614.439C160 628.532 171.529 640.066 185.627 640.066H401.769L396.643 681.066C395.876 686.831 391.007 691.314 385.114 691.314C359.872 691.314 338.091 708.355 331.941 732.824L327.072 752.3C326.176 756.145 326.943 760.242 329.378 763.32C331.812 766.393 335.399 768.184 339.373 768.184H595.627C599.601 768.184 603.317 766.387 605.752 763.315C608.186 760.242 609.082 756.14 608.057 752.295L603.188 732.818C597.038 708.345 575.128 691.309 549.887 691.309C543.993 691.309 538.995 686.954 538.357 681.061L533.231 640.061H749.373C763.466 640.061 775 628.532 775 614.434V191.621C775 177.529 763.471 166 749.373 166L749.367 166ZM749.367 191.621V537.559H185.627V191.621H749.367ZM512.977 684.266C515.283 702.847 531.172 716.94 550.005 716.94C563.459 716.94 575.117 726.034 578.318 739.107L579.213 742.566H355.768L356.664 739.107C359.865 726.039 371.528 716.94 384.977 716.94C403.681 716.94 419.698 702.847 422.005 684.266L427.512 640.065H507.335L512.977 684.266ZM518.741 614.438H185.626V563.19H749.38V614.438H518.741Z" fill="white"/>
<path d="M339.377 422.242C346.423 422.242 352.187 416.477 352.187 409.431C352.187 345.882 403.95 294.119 467.5 294.119C531.049 294.119 582.812 345.882 582.812 409.431C582.812 416.477 588.577 422.242 595.623 422.242C602.669 422.242 608.434 416.477 608.434 409.431C608.434 331.661 545.27 268.489 467.492 268.489C389.722 268.489 326.55 331.653 326.55 409.431C326.555 416.477 332.325 422.242 339.371 422.242H339.377Z" fill="white"/>
<path d="M522.078 352.162L479.796 398.927C475.951 397.645 471.854 396.75 467.494 396.75C446.357 396.75 429.057 414.05 429.057 435.187C429.057 456.325 446.357 473.625 467.494 473.625C488.632 473.625 505.932 456.325 505.932 435.187C505.932 427.627 503.755 420.709 499.91 414.816L541.039 369.461C545.78 364.206 545.394 356.135 540.144 351.395C534.889 346.392 526.819 346.907 522.078 352.162L522.078 352.162ZM467.494 447.87C460.448 447.87 454.684 442.106 454.684 435.06C454.684 428.014 460.448 422.249 467.494 422.249C474.54 422.249 480.305 428.014 480.305 435.06C480.305 442.106 474.54 447.87 467.494 447.87Z" fill="white"/>
</svg>
