<svg width="934" height="934" viewBox="0 0 934 934" fill="none" xmlns="http://www.w3.org/2000/svg">
<path d="M509.248 520.313C509.785 520.313 510.323 520.85 510.86 520.85C513.009 520.85 515.158 519.239 516.232 517.09L529.663 479.486C530.737 476.8 529.125 473.576 526.439 472.502C523.753 471.427 520.53 473.039 519.456 475.725L506.025 513.33C504.951 516.553 506.562 519.239 509.248 520.313Z" fill="white"/>
<path d="M496.355 439.198L460.899 455.851C458.213 456.925 457.139 460.686 458.213 463.372C459.288 465.52 460.899 466.595 463.048 466.595C463.585 466.595 464.66 466.595 465.197 466.058L500.653 449.405C503.339 448.33 504.413 444.57 503.339 441.884C502.264 439.198 499.041 438.124 496.355 439.198Z" fill="white"/>
<path d="M508.708 403.749C509.782 401.063 508.17 397.84 505.484 396.765L468.417 383.334C465.731 382.26 462.507 383.872 461.433 386.558C460.359 389.244 461.97 392.467 464.656 393.541L501.724 406.972C502.261 406.972 502.798 407.509 503.873 407.509C506.022 407.509 507.633 405.898 508.708 403.749Z" fill="white"/>
<path d="M536.654 381.18C537.191 381.18 538.266 381.18 538.803 380.643C541.489 379.568 542.563 375.808 541.489 373.122L524.836 337.13C523.762 334.444 520.001 333.369 517.315 334.444C515.166 335.518 514.092 339.278 515.166 341.964L531.819 377.957C532.894 379.568 534.505 381.18 536.654 381.18Z" fill="white"/>
<path d="M579.09 386.018C581.239 386.018 583.388 384.406 584.463 382.257L597.893 344.653C598.968 341.967 597.356 338.744 594.67 337.669C591.984 336.595 588.761 338.207 587.686 340.893L574.256 378.497C573.181 381.183 574.793 384.406 577.479 385.481C577.479 386.018 578.016 386.018 579.09 386.018Z" fill="white"/>
<path d="M604.877 419.859C605.414 419.859 606.489 419.859 607.026 419.321L642.481 402.669C645.167 401.594 646.242 397.834 645.167 395.148C644.093 392.462 640.333 391.387 637.647 392.462L602.191 409.115C599.505 410.189 598.431 413.949 599.505 416.635C601.117 418.247 603.265 419.859 604.877 419.859Z" fill="white"/>
<path d="M754.214 267.292H288.459C272.343 191.546 228.292 186.711 224.533 186.175H190.689C185.317 173.282 172.961 162 157.919 162C138.58 162 123 177.58 123 196.919C123 216.258 138.58 232.375 157.919 232.375C172.961 232.375 185.316 220.556 190.689 207.663H222.384C223.458 207.663 253.005 216.796 264.286 278.574C278.79 360.767 316.395 567.057 316.395 567.057C316.395 590.156 330.363 632.059 381.934 632.059H580.707L572.649 611.109H381.403C359.377 611.109 349.709 594.993 345.411 583.712C380.33 581.563 475.949 575.117 560.293 569.208L552.773 542.884C466.82 548.794 371.731 555.24 341.107 557.388C334.124 522.469 307.801 374.198 293.295 293.623H750.454C771.405 293.623 786.447 310.814 783.761 331.764L764.422 489.697C764.422 490.234 763.885 493.457 761.736 497.755L785.373 509.573C789.671 500.441 790.745 493.994 790.745 492.921L810.622 330.691C814.383 295.772 789.672 267.3 754.215 267.3L754.214 267.292Z" fill="white"/>
<path d="M701.574 554.167L746.699 536.438C750.997 534.827 753.683 531.066 753.683 526.769C753.683 522.471 751.534 518.173 747.774 516.024L557.597 419.865C553.836 417.716 549.001 418.254 545.242 421.477C542.018 424.163 540.407 428.998 542.018 433.295L606.483 641.191C607.557 645.489 611.855 648.712 616.153 649.249C620.45 649.786 624.748 647.1 626.897 643.34L652.683 593.917L708.014 667.515C709.626 669.663 712.312 671.275 715.535 671.812H717.147C719.296 671.812 721.982 671.275 724.13 669.663L757.974 643.34C760.123 641.728 761.734 639.042 762.271 635.819C762.809 632.596 761.734 629.91 760.123 627.224L701.574 554.167ZM718.765 644.955L659.672 566.523C657.523 563.837 654.3 562.225 651.077 562.225H650.002C646.242 562.762 643.019 564.911 640.87 568.135L619.381 609.5L570.496 452.096L715.008 525.156L679.552 539.123C676.329 540.197 673.643 543.421 673.106 546.644C672.031 549.867 673.106 553.628 675.255 556.314L735.422 632.597L718.765 644.955Z" fill="white"/>
<path d="M655.909 678.798C630.661 678.798 609.709 699.748 609.709 725.534C609.709 751.32 630.66 772.271 655.909 772.271C681.158 772.271 702.109 751.32 702.109 725.534C702.109 699.748 681.158 678.798 655.909 678.798V678.798ZM655.909 749.709C642.478 749.709 631.734 738.965 631.734 725.534C631.734 712.104 642.478 701.359 655.909 701.359C669.34 701.359 680.084 712.104 680.084 725.534C680.084 738.427 669.34 749.709 655.909 749.709Z" fill="white"/>
<path d="M389.994 678.798C364.746 678.798 343.795 699.748 343.795 725.534C343.795 751.32 364.745 772.271 389.994 772.271C415.244 772.271 436.194 751.32 436.194 725.534C436.194 699.748 415.244 678.798 389.994 678.798V678.798ZM389.994 749.709C376.564 749.709 365.82 738.965 365.82 725.534C365.82 712.104 376.564 701.359 389.994 701.359C403.425 701.359 414.169 712.104 414.169 725.534C414.169 738.427 403.425 749.709 389.994 749.709Z" fill="white"/>
</svg>
