<svg width="934" height="934" viewBox="0 0 934 934" fill="none" xmlns="http://www.w3.org/2000/svg">
<path d="M717.738 263.072H648.809V173.922C648.809 170.845 647.584 167.896 645.412 165.718L590.09 110.397C587.913 108.219 584.963 107 581.886 107L295.779 107.005C289.369 107.005 284.178 112.196 284.178 118.606V263.077H215.249C183.683 263.077 158 288.755 158 320.326V634.36C158 665.931 183.678 691.609 215.249 691.609H361.587V740.925H303.71C275.845 740.925 253.175 760.087 253.175 783.629V814.731C253.175 821.141 258.366 826.332 264.776 826.332H668.219C674.629 826.332 679.82 821.141 679.82 814.731V783.629C679.82 760.081 657.155 740.925 629.285 740.925H571.408V691.609H717.746C749.312 691.609 774.995 665.931 774.995 634.36L775 320.326C774.989 288.761 749.311 263.072 717.746 263.072L717.738 263.072ZM593.493 146.616L609.194 162.317H593.493V146.616ZM307.371 130.208H570.282V173.928C570.282 180.338 575.473 185.529 581.883 185.529H625.603V549.528L307.371 549.523L307.371 130.208ZM637.202 572.739C643.612 572.739 648.803 567.548 648.803 561.138V324.451H713.606V591.518L219.365 591.513V324.446H284.168V561.119C284.168 567.529 289.359 572.72 295.769 572.72H637.198L637.202 572.739ZM656.607 783.653V803.156H276.376V783.653C276.376 773.08 288.892 764.151 303.704 764.151H629.296C644.107 764.151 656.618 773.08 656.618 783.653H656.607ZM548.195 740.945H384.779V691.628H548.195V740.945ZM751.791 634.375C751.791 653.147 736.516 668.417 717.749 668.417L215.248 668.423C196.476 668.423 181.206 653.148 181.206 634.381L181.201 320.333C181.201 301.561 196.475 286.291 215.243 286.291H284.172V301.261H214.098C204.206 301.261 196.162 309.306 196.162 319.198V603.138C196.162 609.548 201.352 614.739 207.762 614.739H725.215C731.625 614.739 736.815 609.548 736.815 603.138V319.184C736.815 309.292 728.771 301.248 718.879 301.248H648.805V286.283H717.734C736.506 286.283 751.776 301.557 751.776 320.325L751.782 634.372L751.791 634.375ZM490.925 293.532L464.476 392.228C463.086 397.413 458.401 400.831 453.274 400.831C452.278 400.831 451.272 400.704 450.261 400.432C444.074 398.771 440.401 392.409 442.057 386.222L468.506 287.527C470.167 281.34 476.529 277.667 482.716 279.322C488.907 280.978 492.581 287.335 490.925 293.532ZM586.863 339.872C586.863 343.413 585.25 346.756 582.476 348.96L530.551 390.2C528.422 391.893 525.866 392.718 523.342 392.718C519.924 392.718 516.538 391.217 514.249 388.331C510.267 383.316 511.103 376.017 516.118 372.035L556.601 339.883L516.118 307.731C511.103 303.749 510.256 296.45 514.249 291.435C518.231 286.419 525.53 285.573 530.546 289.566L582.471 330.806C585.25 332.988 586.863 336.337 586.863 339.872ZM416.864 307.72L376.381 339.872L416.864 372.024C421.879 376.006 422.715 383.305 418.733 388.32C416.444 391.206 413.058 392.707 409.64 392.707C407.111 392.707 404.566 391.882 402.431 390.189L350.506 348.949C347.732 346.745 346.119 343.402 346.119 339.861C346.119 336.321 347.732 332.977 350.506 330.773L402.431 289.534C407.446 285.551 414.745 286.387 418.728 291.402C422.715 296.439 421.879 303.738 416.864 307.72Z" fill="white"/>
</svg>
