<svg width="934" height="934" viewBox="0 0 934 934" fill="none" xmlns="http://www.w3.org/2000/svg">
<path d="M808.313 615.806H775.251V274.161C775.251 265.394 771.767 256.98 765.568 250.782C759.369 244.584 750.955 241.1 742.189 241.1H656.379L593.486 178.202C589.112 174.069 582.274 174.069 577.9 178.202L515.007 241.1H416.842L397.467 221.714L367.239 191.506C356.665 180.938 342.329 175 327.381 175C312.429 175 298.092 180.938 287.523 191.506L273.801 205.228C264.261 214.837 258.534 227.585 257.688 241.1H191.145C182.378 241.1 173.964 244.583 167.766 250.782C161.568 256.981 158.083 265.395 158.083 274.161V615.806H125.021C118.935 615.806 114 620.741 114 626.827V670.91C114 679.678 117.483 688.091 123.683 694.289C129.882 700.488 138.296 703.972 147.062 703.972H786.268C795.036 703.972 803.449 700.489 809.648 694.289C815.846 688.09 819.33 679.677 819.33 670.91V626.827C819.33 623.905 818.169 621.1 816.103 619.034C814.036 616.967 811.236 615.806 808.313 615.806ZM585.693 201.575L649.461 265.343L545.28 369.525L481.512 305.756L498.407 288.861L530.288 320.742L545.869 305.161L513.992 273.28L546.017 241.25L577.898 273.131L593.479 257.55L561.598 225.669L585.693 201.575ZM647.621 565.262L627.572 558.639C628.034 558.098 628.531 557.591 629.004 557.065C632.256 553.429 635.705 549.975 639.34 546.728C639.872 546.256 640.379 545.759 640.915 545.296L647.621 565.262ZM606.549 549.523C606.121 550.074 605.59 550.546 605.162 551.112L568.651 538.989L621.295 486.345L633.418 522.856C632.857 523.284 632.38 523.815 631.829 524.243C622.417 531.648 613.93 540.155 606.545 549.581L606.549 549.523ZM327.389 307.38L350.739 284.084L571.584 504.878L548.218 528.233L327.389 307.38ZM307.97 479.304L339.851 511.185L355.432 495.604L323.551 463.723L355.576 431.698L387.448 463.594L403.045 447.998L371.164 416.112L388.059 399.217L451.827 462.985L347.646 567.166L283.878 503.398L307.97 479.304ZM587.168 489.287L366.374 268.443L389.729 245.088L610.523 465.932L587.168 489.287ZM492.964 263.14L465.929 290.176L438.883 263.14H492.964ZM289.363 220.809L303.104 207.068C309.54 200.642 318.258 197.036 327.35 197.036C336.443 197.036 345.161 200.642 351.596 207.068L374.09 229.507L311.803 291.794L289.363 269.345C282.937 262.904 279.326 254.176 279.326 245.079C279.326 235.977 282.937 227.25 289.363 220.809ZM180.125 274.161C180.125 268.075 185.06 263.14 191.146 263.14H260.488C263.18 271.337 267.736 278.801 273.802 284.941L372.491 383.631L260.523 495.6C256.217 499.905 256.217 506.881 260.523 511.186L339.872 590.536C344.177 594.836 351.149 594.836 355.454 590.536L467.423 478.567L540.455 551.599C540.563 551.708 540.72 551.742 540.829 551.841C541.665 552.613 542.624 553.248 543.658 553.725C543.913 553.833 544.145 553.981 544.396 554.079C544.651 554.178 544.637 554.212 544.77 554.256L605.89 574.635L661.58 593.193C662.692 593.567 663.863 593.759 665.039 593.764C668.581 593.759 671.902 592.056 673.974 589.183C676.04 586.31 676.606 582.62 675.489 579.26L656.931 523.57L636.552 462.449C636.552 462.316 636.419 462.208 636.375 462.075C636.331 461.942 636.134 461.588 636.021 461.347C635.543 460.314 634.909 459.355 634.136 458.518C634.038 458.41 634.003 458.252 633.895 458.144L560.863 385.112L672.832 273.143C674.898 271.077 676.06 268.268 676.06 265.345C675.991 264.597 675.843 263.859 675.617 263.141H742.185C745.107 263.141 747.912 264.302 749.978 266.369C752.045 268.435 753.206 271.239 753.206 274.162V615.807H543.81C537.724 615.807 532.79 620.741 532.79 626.827V637.848H400.54V626.827C400.54 623.905 399.379 621.101 397.312 619.034C395.246 616.968 392.442 615.807 389.519 615.807H180.124L180.125 274.161ZM797.29 670.91C797.29 673.832 796.129 676.637 794.062 678.703C791.996 680.77 789.191 681.931 786.269 681.931H147.062C140.976 681.931 136.042 676.996 136.042 670.91V637.848H378.499V648.868C378.499 651.791 379.66 654.595 381.727 656.662C383.793 658.728 386.598 659.889 389.52 659.889H543.811C546.734 659.889 549.538 658.728 551.605 656.662C553.671 654.595 554.832 651.791 554.832 648.868V637.848H797.29V670.91Z" fill="white"/>
</svg>
