<svg width="934" height="934" viewBox="0 0 934 934" fill="none" xmlns="http://www.w3.org/2000/svg">
<path fill-rule="evenodd" clip-rule="evenodd" d="M525.325 539.217C501.05 566.381 460.218 573.784 427.429 554.853C389.848 533.153 376.955 485.044 398.656 447.465C420.341 409.884 468.465 396.991 506.044 418.692C538.133 437.207 552.219 475.018 542.144 509.062C540.244 515.46 543.899 522.198 550.297 524.083C556.706 525.983 563.445 522.328 565.329 515.929C578.525 471.395 560.102 421.964 518.138 397.742C468.998 369.369 406.068 386.231 377.702 435.371C349.328 484.511 366.19 547.429 415.331 575.807C458.218 600.563 511.601 590.866 543.35 555.333C547.799 550.36 547.378 542.704 542.394 538.255C537.421 533.817 529.765 534.238 525.317 539.222L525.325 539.217Z" fill="white"/>
<path fill-rule="evenodd" clip-rule="evenodd" d="M616.042 704.506H249.056C242.383 704.506 236.962 709.927 236.962 716.6C236.962 723.274 242.383 728.695 249.056 728.695H640.231L667.962 756.426C682.136 770.588 705.104 770.588 719.278 756.426L736.378 739.326C739.547 736.156 742.004 732.539 743.753 728.695H781.209C801.252 728.695 817.493 712.453 817.493 692.411V674.473C817.493 666.455 814.313 658.761 808.638 653.091C802.963 647.416 795.275 644.236 787.256 644.236H781.209V293.284C781.209 283.657 777.386 274.429 770.577 267.631C763.78 260.823 754.552 257 744.924 257H720.735C714.061 257 708.64 262.421 708.64 269.095C708.64 275.768 714.061 281.189 720.735 281.189H744.924C748.132 281.189 751.215 282.458 753.477 284.731C755.75 286.994 757.019 290.077 757.019 293.284V583.555H631.926L629.215 580.845C624.486 576.115 616.829 576.115 612.116 580.845L591.771 560.5C624.61 504.853 617.132 431.923 569.346 384.153C512.706 327.503 420.741 327.503 364.097 384.153C309.357 438.881 307.516 526.607 358.557 583.555H176.474V293.284C176.474 290.077 177.743 286.994 180.016 284.731C182.278 282.458 185.361 281.189 188.569 281.189H684.449C691.122 281.189 696.544 275.768 696.544 269.095C696.544 262.421 691.122 257 684.449 257H188.569C178.942 257 169.713 260.823 162.916 267.632C156.107 274.429 152.284 283.657 152.284 293.285V644.236H146.237C138.219 644.236 130.525 647.417 124.855 653.091C119.18 658.766 116 666.455 116 674.473V692.411C116 712.453 132.241 728.695 152.284 728.695H176.473C183.147 728.695 188.568 723.274 188.568 716.6C188.568 709.926 183.147 704.505 176.473 704.505H152.284C145.61 704.505 140.189 699.084 140.189 692.411V674.473C140.189 672.864 140.832 671.331 141.955 670.192C143.094 669.068 144.628 668.426 146.237 668.426C184.286 668.426 348.183 668.242 368.032 668.221L402.452 679.7C403.683 680.11 404.979 680.315 406.275 680.315H527.221C528.517 680.315 529.808 680.11 531.044 679.7L565.465 668.221L579.774 668.232L616.036 704.505L616.042 704.506ZM586.459 640.718L620.675 606.502L719.285 705.111C724.004 709.841 724.004 717.497 719.285 722.211L702.168 739.327C697.449 744.046 689.793 744.046 685.069 739.327L586.459 640.718ZM716.758 668.379L736.39 688.011C741.12 692.741 744.273 698.459 745.85 704.507H781.227C787.901 704.507 793.322 699.086 793.322 692.413V674.475C793.322 672.866 792.679 671.333 791.556 670.193C790.417 669.07 788.883 668.428 787.274 668.428C774.154 668.428 747.373 668.406 716.763 668.379L716.758 668.379ZM558.118 645.184C556.401 640.832 557.297 635.692 560.817 632.171L540.472 611.826C492.952 639.876 432.819 638.505 386.504 607.75H176.5V644.228C242.221 644.18 370 644.034 370 644.034C371.307 644.034 372.603 644.239 373.834 644.65L408.254 656.129H525.281L558.12 645.184L558.118 645.184ZM757.037 644.228V607.749H656.133L692.552 644.169L757.042 644.228L757.037 644.228ZM595.024 597.955L577.573 580.504C574.987 583.565 572.249 586.53 569.371 589.408C566.493 592.285 563.518 595.018 560.468 597.609L577.918 615.06L595.024 597.955ZM381.232 401.262C428.423 354.055 505.067 354.055 552.271 401.262C599.477 448.453 599.477 525.097 552.271 572.3C505.064 619.507 428.419 619.507 381.232 572.3C334.026 525.094 334.026 448.449 381.232 401.262Z" fill="white"/>
<path fill-rule="evenodd" clip-rule="evenodd" d="M224.867 716.6C224.867 723.279 219.451 728.695 212.772 728.695C206.093 728.695 200.677 723.279 200.677 716.6C200.677 709.921 206.093 704.506 212.772 704.506C219.451 704.506 224.867 709.921 224.867 716.6Z" fill="white"/>
</svg>
