<svg width="934" height="934" viewBox="0 0 934 934" fill="none" xmlns="http://www.w3.org/2000/svg">
<path fill-rule="evenodd" clip-rule="evenodd" d="M714.424 348.886C713.022 354.165 708.238 357.63 703.038 357.63C702.03 357.63 700.999 357.506 699.985 357.228L662.899 347.289C656.594 345.603 652.868 339.134 654.558 332.832C656.231 326.54 662.705 322.8 668.997 324.486L706.083 334.425C712.384 336.12 716.119 342.594 714.424 348.886L714.424 348.886ZM629.043 237.658C624.437 233.051 624.437 225.587 629.043 220.971L656.196 193.819C660.802 189.213 668.28 189.213 672.882 193.819C677.493 198.43 677.493 205.904 672.882 210.519L645.73 237.658C643.424 239.972 640.411 241.114 637.384 241.114C634.357 241.114 631.357 239.972 629.043 237.658H629.043ZM671.891 264.973L707.038 255.544C713.335 253.858 719.805 257.597 721.495 263.889C723.181 270.195 719.455 276.656 713.15 278.346L678.002 287.763C676.971 288.046 675.949 288.174 674.935 288.174C669.727 288.174 664.966 284.7 663.55 279.417C661.859 273.129 665.594 266.659 671.891 264.974L671.891 264.973ZM219.197 745.557H219.143L398.547 588.074L459.909 641.639C462.13 643.59 464.891 644.555 467.662 644.555C470.41 644.555 473.144 643.603 475.366 641.705L537.661 588.016L719.013 745.17C717.65 745.423 716.243 745.573 714.809 745.573L219.204 745.578L219.197 745.557ZM198.147 732.579L380.609 572.422L198.113 413.114C196.506 416.305 195.59 419.876 195.59 423.681V721.951C195.59 725.774 196.52 729.376 198.139 732.571L198.147 732.579ZM300.759 400.076H219.197H219.073L467.702 617.134L719.062 400.484C717.668 400.231 716.252 400.072 714.792 400.072H640.451C642.008 417.714 630.725 434.512 613.042 439.251C609.83 440.097 606.6 440.513 603.422 440.513C589.864 440.513 577.249 433.012 570.757 421.065C534.01 405.568 483.999 400.435 431.398 406.559L457.151 469.407C461.625 480.337 457.081 492.656 446.58 498.046L431.013 506.06C427.756 507.737 424.247 508.582 420.716 508.582C418.092 508.582 415.463 508.104 412.897 507.175C406.905 504.967 402.25 500.515 399.812 494.598L371.562 426.231C366.106 427.651 360.552 428.359 355.043 428.359C343.56 428.359 332.201 425.328 321.943 419.407C313.416 414.482 306.244 407.889 300.752 400.07L300.759 400.076ZM344.01 320.872L380.22 311.177L402.31 393.593L366.078 403.288C343.364 409.382 319.93 395.841 313.841 373.127C307.756 350.418 321.297 326.965 344.011 320.872H344.01ZM409.78 416.014L434.971 477.495L421.213 484.58L394.574 420.094L409.78 416.014ZM519.017 231.989L562.103 392.78C522.88 380.338 474.983 377.134 424.081 383.687L404.032 308.868C451.393 289.102 491.272 262.392 519.012 231.992L519.017 231.989ZM537.792 195.407C539.615 192.248 542.536 189.987 546.014 189.057C547.164 188.752 548.328 188.602 549.487 188.602C551.855 188.602 554.187 189.221 556.302 190.447C559.461 192.27 561.723 195.19 562.647 198.669L616.544 399.822C618.496 407.052 614.172 414.513 606.937 416.461C599.707 418.385 592.246 414.089 590.317 406.858L536.415 205.705C535.477 202.214 535.96 198.558 537.792 195.408L537.792 195.407ZM615.982 279.298C613.53 277.868 610.822 277.09 608.057 276.957L616.725 309.317C619.04 307.817 620.995 305.79 622.416 303.33C624.761 299.258 625.389 294.515 624.173 289.966C622.96 285.43 620.053 281.651 615.982 279.297L615.982 279.298ZM738.405 423.686C738.405 421.017 737.94 418.464 737.13 416.079L555.722 572.43L737.096 729.619C737.928 727.212 738.397 724.645 738.397 721.959L738.405 423.686ZM714.806 376.479H634.73L622.959 332.587C631.313 329.136 638.265 323.087 642.85 315.131C648.346 305.595 649.815 294.492 646.965 283.867C641.567 263.693 621.986 251.025 601.825 253.68L585.443 192.548C582.877 183.003 576.717 174.985 568.106 170.011C559.49 165.041 549.472 163.714 539.901 166.272C530.334 168.829 522.329 174.989 517.356 183.617C513.86 189.662 512.174 196.396 512.36 203.172C487.663 235.775 445.454 265.91 395.204 286.986C392.47 285.123 388.965 284.415 385.518 285.336L337.896 298.103C303.535 307.307 282.706 342.078 290.388 376.487L219.193 376.483C193.164 376.483 172 397.656 172 423.69V721.959C172 747.995 193.165 769.161 219.193 769.161H714.798C740.827 769.161 762 747.995 762 721.959L761.996 423.678C762.004 397.65 740.826 376.472 714.803 376.472L714.806 376.479Z" fill="white"/>
</svg>
