<svg width="934" height="934" viewBox="0 0 934 934" fill="none" xmlns="http://www.w3.org/2000/svg">
<path fill-rule="evenodd" clip-rule="evenodd" d="M734.191 445.122C727.741 445.128 721.929 441.241 719.458 435.287C716.987 429.327 718.347 422.469 722.909 417.908C727.464 413.347 734.322 411.98 740.282 414.451C746.242 416.917 750.128 422.73 750.128 429.179C750.117 437.975 742.987 445.107 734.191 445.122ZM734.191 389.371C723.632 389.366 713.497 393.562 706.03 401.03C698.562 408.497 694.366 418.621 694.366 429.185C694.361 439.744 698.557 449.874 706.025 457.346C713.492 464.814 723.621 469.005 734.186 469.005C744.745 469.005 754.874 464.808 762.341 457.341C769.808 449.873 774.005 439.739 774 429.18C773.989 418.626 769.793 408.508 762.325 401.046C754.863 393.579 744.744 389.382 734.191 389.371ZM380.432 702.054C380.427 705.325 377.776 707.976 374.505 707.976H318.651C309.779 707.932 301.316 704.22 295.274 697.722C294.921 697.313 295.133 621.593 295.133 614.098L295.138 614.103C298.072 611.115 301.452 608.59 305.148 606.62C330.805 590.085 340.738 567.589 347.035 533.517C358.617 546.656 350.709 572.891 343.84 586.279C341.929 589.986 342.087 594.427 344.264 597.992C346.436 601.552 350.311 603.723 354.486 603.718H374.521C377.787 603.718 380.437 606.363 380.448 609.634V702.053L380.432 702.054ZM271.265 699.365H260.723V615.524H271.271L271.265 699.365ZM374.505 579.853H372.279C379.267 557.876 377.977 536.773 368.24 522.105C364.953 516.782 360.266 512.461 354.698 509.609C349.13 506.757 342.888 505.483 336.645 505.924C331.093 506.343 326.565 510.55 325.737 516.058C320.088 553.842 313.099 570.856 297.19 583.086C292.896 586.488 288.21 589.372 283.225 591.653H248.777C245.615 591.653 242.583 592.91 240.346 595.147C238.109 597.384 236.852 600.415 236.852 603.583V711.318C236.852 714.48 238.109 717.517 240.346 719.754C242.583 721.991 245.614 723.243 248.777 723.243H283.202C284.732 723.259 286.25 722.981 287.676 722.421C296.847 728.56 307.624 731.853 318.656 731.886H374.51C382.408 731.875 389.979 728.735 395.568 723.15C401.152 717.566 404.293 709.99 404.298 702.093V609.636C404.293 601.739 401.152 594.167 395.563 588.584C389.978 583 382.402 579.858 374.505 579.853ZM528.61 445.128C522.16 445.128 516.347 441.242 513.882 435.288C511.411 429.328 512.777 422.47 517.338 417.914C521.894 413.353 528.752 411.987 534.712 414.458C540.666 416.923 544.553 422.736 544.553 429.185C544.547 437.986 537.41 445.124 528.61 445.128ZM528.61 389.377C518.045 389.372 507.916 393.563 500.443 401.03C492.976 408.492 488.774 418.621 488.774 429.186C488.774 439.745 492.965 449.88 500.432 457.347C507.9 464.814 518.029 469.011 528.593 469.011C539.152 469.011 549.282 464.814 556.755 457.347C564.222 449.879 568.413 439.745 568.413 429.186C568.402 418.632 564.206 408.514 556.744 401.052C549.282 393.585 539.163 389.388 528.61 389.377ZM631.402 445.128C624.952 445.123 619.145 441.236 616.68 435.282C614.214 429.322 615.58 422.47 620.141 417.908C624.697 413.353 631.555 411.987 637.51 414.458C643.469 416.923 647.35 422.736 647.35 429.185C647.345 437.986 640.202 445.124 631.402 445.128ZM631.402 389.377C620.837 389.377 610.708 393.568 603.241 401.036C595.773 408.509 591.582 418.638 591.582 429.197C591.582 439.756 595.779 449.885 603.246 457.352C610.714 464.819 620.843 469.016 631.407 469.011C641.966 469.011 652.096 464.814 659.563 457.347C667.03 449.874 671.221 439.745 671.221 429.186C671.21 418.627 667.009 408.508 659.547 401.047C652.079 393.579 641.955 389.383 631.402 389.377ZM813.151 507.518V350.863C813.151 339.096 808.476 327.819 800.159 319.496C791.843 311.18 780.56 306.51 768.798 306.51H572.655V309.797C572.628 327.873 565.438 345.191 552.658 357.971C539.878 370.751 522.554 377.941 504.484 377.963H449.609V507.517C449.609 519.279 454.279 530.562 462.601 538.879C470.918 547.196 482.194 551.871 493.963 551.871H647.789C651.343 551.865 654.712 553.449 656.982 556.187C659.246 558.925 660.177 562.528 659.508 566.022C656.737 580.147 651.147 593.569 643.081 605.488C678.58 600.562 701.988 585.121 714.268 558.761C716.227 554.56 720.445 551.871 725.083 551.871H768.799C780.561 551.871 791.844 547.195 800.161 538.879C808.478 530.562 813.151 519.281 813.151 507.518ZM520.268 714.933V575.712H493.985C475.915 575.685 458.591 568.489 445.811 555.715C433.037 542.935 425.842 525.611 425.814 507.541V494.244H170.412C157.278 494.26 144.689 499.485 135.398 508.771C126.112 518.057 120.888 530.645 120.865 543.779V714.939C120.887 728.072 126.112 740.662 135.398 749.947C144.689 759.232 157.278 764.457 170.412 764.474H218.151C222.788 764.474 227.001 767.163 228.96 771.365C242.834 801.136 269.487 818.287 310.026 823.37C300.61 809.954 294.094 794.72 290.905 778.641C290.246 775.146 291.177 771.543 293.441 768.8C295.71 766.063 299.08 764.479 302.634 764.473H470.742C483.876 764.457 496.465 759.232 505.75 749.946C515.036 740.661 520.261 728.072 520.277 714.938L520.268 714.933ZM350.613 354.18C347.053 354.185 343.679 355.774 341.414 358.518C339.145 361.261 338.22 364.869 338.884 368.364C341.67 382.488 347.255 395.905 355.31 407.829C319.796 402.903 296.413 387.462 284.118 361.092L284.112 361.097C282.158 356.89 277.935 354.201 273.298 354.206H229.603C217.841 354.206 206.559 349.531 198.242 341.215C189.92 332.898 185.25 321.616 185.25 309.853V153.17C185.25 141.408 189.92 130.125 198.242 121.808C206.558 113.492 217.841 108.816 229.603 108.816H504.471C516.232 108.816 527.515 113.492 535.832 121.808C544.154 130.125 548.824 141.407 548.824 153.17V309.853C548.824 321.615 544.154 332.898 535.832 341.215C527.516 349.531 516.233 354.206 504.471 354.206L350.613 354.18ZM768.829 282.667H572.658V153.171C572.631 135.095 565.435 117.766 552.656 104.986C539.871 92.2066 522.536 85.0223 504.46 85H229.579C211.509 85.0327 194.185 92.2226 181.405 105.002C168.631 117.776 161.436 135.101 161.408 153.17V309.853C161.435 327.929 168.636 345.258 181.42 358.038C194.206 370.818 211.541 378.002 229.617 378.024H266.018C286.304 414.534 325.153 433.154 381.53 433.416C386.309 433.437 390.647 430.602 392.541 426.209C394.435 421.822 393.526 416.722 390.233 413.261C380.153 403.132 372.103 391.173 366.514 378.024H425.775V470.377H170.401C150.937 470.394 132.28 478.133 118.52 491.898C104.756 505.657 97.0153 524.315 97 543.778V714.938C97.0163 734.401 104.756 753.058 118.52 766.818C132.28 780.583 150.938 788.323 170.401 788.338H210.83C232.71 828.229 274.897 848.573 336.406 848.857C341.191 848.879 345.523 846.043 347.417 841.651C349.311 837.258 348.402 832.159 345.104 828.692C333.565 817.175 324.465 803.448 318.342 788.339H470.733C490.191 788.322 508.854 780.583 522.613 766.818C536.373 753.059 544.113 734.4 544.134 714.938V575.717H631.921C626.342 588.877 618.286 600.835 608.19 610.948C604.919 614.409 604.016 619.488 605.899 623.869C607.782 628.245 612.082 631.091 616.85 631.102C662.624 631.102 708.839 618.208 732.427 575.716H768.829C786.905 575.695 804.228 568.505 817.008 555.725C829.788 542.945 836.978 525.621 837 507.545V350.862C836.978 332.786 829.788 315.463 817.008 302.683C804.228 289.903 786.905 282.713 768.829 282.685L768.829 282.667ZM419.166 249.401C434.03 229.328 437.845 207.454 429.393 190.896C427.341 186.226 424.037 182.215 419.846 179.309C415.661 176.397 410.746 174.704 405.651 174.416C394.972 174.525 385.05 182.852 377.724 197.846C375.732 201.934 371.595 204.536 367.045 204.557C362.5 204.574 358.336 202.016 356.306 197.944C350.994 187.265 341.932 176.723 329.022 176.723C324.014 176.93 319.148 178.471 314.925 181.176C310.707 183.881 307.278 187.658 304.997 192.121C296.784 206.692 299.092 225.992 311.322 245.063C325.478 264.516 344.925 279.489 367.356 288.203C387.657 279.946 405.482 266.578 419.101 249.401H419.166ZM405.407 150.543C414.948 150.75 424.239 153.619 432.229 158.833C440.224 164.047 446.597 171.395 450.631 180.038C463.296 204.853 458.697 236.089 438.352 263.602C427.02 278.27 412.977 290.63 396.997 300.015C387.946 306.279 377.642 310.519 366.806 312.441C356.383 310.084 346.466 305.893 337.513 300.058C319.094 289.744 303.29 275.343 291.321 257.952C274.149 231.201 271.607 202.92 284.272 180.404C288.724 172.065 295.37 165.099 303.48 160.249C311.589 155.394 320.869 152.841 330.318 152.863C344.469 153.462 357.706 159.993 366.791 170.857C375.94 158.61 390.128 151.143 405.407 150.543Z" fill="white"/>
</svg>
