<svg width="934" height="934" viewBox="0 0 934 934" fill="none" xmlns="http://www.w3.org/2000/svg">
<path d="M152.812 259.806V673.318H781.35V259.806H152.812ZM144.545 235H789.624C798.762 235 806.169 242.401 806.169 251.539V681.592C806.169 690.73 798.762 698.131 789.624 698.131H144.545C135.407 698.131 128 690.729 128 681.592V251.539C128 242.401 135.407 235 144.545 235V235Z" fill="white"/>
<path d="M240.254 559.352H379.624C380.034 555.936 380.236 552.475 380.236 548.979C380.236 505.504 348.496 470.701 309.942 470.701C271.383 470.701 239.642 505.504 239.642 548.979C239.642 552.475 239.849 555.936 240.253 559.352H240.254ZM217.796 574.604C215.835 566.291 214.831 557.702 214.831 548.978C214.831 492.287 257.145 445.888 309.942 445.888C362.733 445.888 405.047 492.287 405.047 548.978C405.047 557.701 404.043 566.291 402.087 574.604L399.832 584.158H220.042L217.796 574.604Z" fill="white"/>
<path d="M310.153 471.111C275.783 471.111 247.924 443.248 247.924 408.876C247.924 374.506 275.781 346.641 310.153 346.641C344.523 346.641 372.388 374.504 372.388 408.876C372.388 443.246 344.525 471.111 310.153 471.111V471.111ZM310.153 446.299C330.823 446.299 347.576 429.546 347.576 408.876C347.576 388.206 330.823 371.453 310.153 371.453C289.489 371.453 272.73 388.206 272.73 408.876C272.73 429.546 289.489 446.299 310.153 446.299V446.299Z" fill="white"/>
<path fill-rule="evenodd" clip-rule="evenodd" d="M471.216 433.481H686.243C693.096 433.481 698.646 440.335 698.646 445.884C698.646 452.738 693.09 458.287 686.243 458.287H471.216C464.363 458.287 458.813 451.434 458.813 445.884C458.813 439.031 464.369 433.481 471.216 433.481V433.481Z" fill="white"/>
<path fill-rule="evenodd" clip-rule="evenodd" d="M471.216 375.59H686.243C693.096 375.59 698.646 382.443 698.646 387.993C698.646 394.846 693.09 400.396 686.243 400.396H471.216C464.363 400.396 458.813 393.542 458.813 387.993C458.813 381.139 464.369 375.59 471.216 375.59V375.59Z" fill="white"/>
<path fill-rule="evenodd" clip-rule="evenodd" d="M471.216 491.373H686.243C693.096 491.373 698.646 498.227 698.646 503.776C698.646 510.63 693.09 516.179 686.243 516.179H471.216C464.363 516.179 458.813 509.326 458.813 503.776C458.813 496.923 464.369 491.373 471.216 491.373V491.373Z" fill="white"/>
<path fill-rule="evenodd" clip-rule="evenodd" d="M471.216 549.265H611.809C618.662 549.265 624.212 556.118 624.212 561.668C624.212 568.521 618.657 574.071 611.809 574.071H471.216C464.363 574.071 458.813 567.218 458.813 561.668C458.813 554.815 464.369 549.265 471.216 549.265Z" fill="white"/>
</svg>
