<svg width="1270" height="343" viewBox="0 0 1270 343" fill="none" xmlns="http://www.w3.org/2000/svg">
<ellipse cx="1161.8" cy="171.299" rx="107.797" ry="102.703" fill="#027445"/>
<path d="M731.305 67.6431L851.081 274.018H611.529L731.305 67.6431Z" fill="#0A2463"/>
<rect y="214.915" width="61.0169" height="58.1338" fill="#D31B49"/>
<rect y="67.6431" width="61.0169" height="58.1338" fill="#D31B49"/>
<rect x="75.2544" y="67.6431" width="61.0169" height="58.1338" fill="#D31B49"/>
<rect x="75.2544" y="141.278" width="61.0169" height="58.1338" fill="#D31B49"/>
<rect x="75.2544" y="214.915" width="61.0169" height="58.1338" fill="#D31B49"/>
<rect y="141.278" width="61.0169" height="58.1338" fill="#D31B49"/>
<rect x="884" y="216.096" width="61.0169" height="58.1338" fill="#D31B49"/>
<rect x="884" y="68.5962" width="61.0169" height="58.1338" fill="#D31B49"/>
<rect x="959" y="68.5962" width="61.0169" height="58.1338" fill="#D31B49"/>
<rect x="959.373" y="215.868" width="61.0169" height="58.1338" fill="#D31B49"/>
<rect x="884.119" y="142.233" width="61.0169" height="58.1338" fill="#D31B49"/>
<rect x="442" y="215.868" width="61.0169" height="58.1338" fill="#027445"/>
<rect x="442" y="68.5962" width="61.0169" height="58.1338" fill="#027445"/>
<rect x="517.254" y="68.5962" width="61.0169" height="58.1338" fill="#027445"/>
<rect x="517.254" y="142.233" width="61.0169" height="58.1338" fill="#027445"/>
<rect x="442" y="142.233" width="61.0169" height="58.1338" fill="#027445"/>
<path d="M289.305 273.229L169.53 68.3071L409.081 68.3071L289.305 273.229Z" fill="#0A2463"/>
</svg>
